<?xml version="1.0" standalone="no"?>
<!DOCTYPE svg PUBLIC "-//W3C//DTD SVG 1.1//EN" "http://www.w3.org/Graphics/SVG/1.1/DTD/svg11.dtd" >
<svg xmlns="http://www.w3.org/2000/svg" xmlns:xlink="http://www.w3.org/1999/xlink" version="1.1">
<metadata>
Created by FontForge 20170731 at Wed May 14 19:52:46 2014
 By Aleksey,,,
Copyright (c) 2010 by TypeTogether. All rights reserved.This font is ONLY licensed for use when accessed from the Extensis WebINK font service. Any other use of this font file is illegal under United States and international copyright laws. Please respect the rights of the people who design and license fonts.
</metadata>
<defs>
<font id="AdelleCyrillic-Heavy" horiz-adv-x="500" >
  <font-face 
    font-family="Adelle Cyrillic"
    font-weight="900"
    font-stretch="normal"
    units-per-em="1000"
    panose-1="2 0 5 3 0 0 0 2 0 4"
    ascent="755"
    descent="-245"
    x-height="528"
    cap-height="724"
    bbox="-173 -276 1169 970"
    underline-thickness="50"
    underline-position="-150"
    unicode-range="U+000D-25CA"
  />
<missing-glyph 
 />
    <glyph glyph-name=".notdef" 
 />
    <glyph glyph-name=".null" horiz-adv-x="0" 
 />
    <glyph glyph-name="nonmarkingreturn" unicode="&#xd;" 
 />
    <glyph glyph-name="NULL" horiz-adv-x="0" 
 />
    <glyph glyph-name="NULL" horiz-adv-x="0" 
 />
    <glyph glyph-name="space" unicode=" " horiz-adv-x="182" 
 />
    <glyph glyph-name="exclam" unicode="!" horiz-adv-x="321" 
d="M74 206l-22 331v187h221v-187l-22 -331h-177zM268 81q0 -45 -25.5 -69t-79.5 -24q-55 0 -80.5 23t-25.5 70q0 45 25.5 69t80.5 24q54 0 79.5 -24t25.5 -69z" />
    <glyph glyph-name="quotedbl" unicode="&#x22;" horiz-adv-x="459" 
d="M23 447v259h180v-259h-180zM256 447v259h180v-259h-180z" />
    <glyph glyph-name="numbersign" unicode="#" horiz-adv-x="607" 
d="M283 0l15 103h-52l-15 -103h-136l15 103h-84l28 137h77l12 78h-85l28 137h77l14 88h136l-14 -88h52l15 88h135l-14 -88h88l-27 -137h-81l-12 -78h88l-27 -137h-82l-15 -103h-136zM331 318h-52l-12 -78h52z" />
    <glyph glyph-name="dollar" unicode="$" horiz-adv-x="534" 
d="M511 214q0 -86 -43.5 -135t-110.5 -67v-92h-193v84q-35 3 -70 11t-65 22v176l152 -10l10 -63q1 -9 4.5 -12.5t9.5 -5.5q17 -6 47 -6t49.5 14.5t19.5 41.5q0 25 -22 38t-55 22.5t-72 21t-72 32t-55 55t-22 91.5q0 84 43.5 131.5t110.5 66.5v85h193v-76q26 -3 54 -9t70 -17
v-179l-151 7l-11 62q-2 11 -6 14t-14 5q-9 2 -17.5 2h-15.5q-27 0 -46.5 -11.5t-19.5 -35.5q0 -22 22 -34.5t55 -22.5t72 -22.5t72 -34.5t55 -57t22 -92z" />
    <glyph glyph-name="percent" unicode="%" horiz-adv-x="932" 
d="M196 257q-50 0 -83.5 13.5t-54 37.5t-29.5 56t-9 69q0 87 43 137t141 50q95 0 135.5 -46.5t40.5 -127.5q0 -88 -45 -138.5t-139 -50.5zM182 -12l374 632h191l-373 -632h-192zM202 361q13 0 21.5 15.5t8.5 65.5q0 45 -8.5 59t-22.5 14q-12 0 -21.5 -13t-9.5 -60
q0 -50 9 -65.5t23 -15.5zM729 -12q-50 0 -84 13.5t-54.5 37.5t-29.5 56t-9 69q0 87 43.5 137t141.5 50q95 0 135 -46.5t40 -127.5q0 -88 -44.5 -138.5t-138.5 -50.5zM734 92q14 0 22 15.5t8 65.5q0 45 -8 59t-22 14q-12 0 -21.5 -13t-9.5 -60q0 -50 8.5 -65.5t22.5 -15.5z
" />
    <glyph glyph-name="ampersand" unicode="&#x26;" horiz-adv-x="728" 
d="M492 0l-36 40q-75 -52 -190 -52q-52 0 -95.5 13t-74.5 39.5t-48.5 65.5t-17.5 90q0 63 33.5 113t92.5 86q-18 26 -25 52.5t-7 50.5q0 95 60.5 140.5t160.5 45.5q62 0 117 -15.5t87 -36.5v-180l-147 5l-13 67q-3 11 -11 12q-5 1 -9 1h-7q-36 0 -36 -39q0 -17 10 -35.5
t19 -29.5l94 -112l17 66h201v-100l-46 -9q-9 -2 -12 -4.5t-5 -12.5q-5 -21 -12 -40.5t-17 -41.5l54 -60q3 -3 7 -5.5t12 -3.5l55 -8v-102h-211zM241 279q-11 -10 -20 -25.5t-9 -42.5q0 -36 20.5 -55.5t54.5 -19.5q14 0 30 4.5t32 15.5z" />
    <glyph glyph-name="quotesingle" unicode="'" horiz-adv-x="226" 
d="M23 447v259h180v-259h-180z" />
    <glyph glyph-name="parenleft" unicode="(" horiz-adv-x="412" 
d="M208 -188q-36 42 -68 95t-56.5 113.5t-39 126.5t-14.5 133q0 71 14 136t38.5 124.5t59 114t75.5 104.5l157 -92q-63 -85 -90 -177.5t-27 -209.5q0 -61 7 -111t21 -95t34.5 -86.5t47.5 -84.5z" />
    <glyph glyph-name="parenright" unicode=")" horiz-adv-x="412" 
d="M192 -188l-156 93q65 88 92 182t27 206q0 63 -7.5 114t-21.5 95.5t-34 84.5t-46 81l159 91q35 -42 67 -94.5t56 -112.5t38.5 -125.5t14.5 -133.5q0 -71 -14 -136t-39 -125t-60 -115t-76 -105z" />
    <glyph glyph-name="asterisk" unicode="*" horiz-adv-x="482" 
d="M76 450l44 61l94 46l-103 -22l-72 23l41 129l72 -24l72 -75l-51 92v75h135v-75l-50 -92h-34l-10 -31l27 -19l-10 -105l-44 -63zM295 370l-43 63l-11 105l27 19l-10 31l72 75l72 24l41 -129l-72 -23l-103 22l94 -46l45 -61z" />
    <glyph glyph-name="plus" unicode="+" horiz-adv-x="570" 
d="M206 114v134h-120v153h120v130h156v-130h121v-153h-121v-134h-156z" />
    <glyph glyph-name="comma" unicode="," horiz-adv-x="286" 
d="M78 -97l25 110q3 10 -6 13l-47 13l22 134q34 0 65 -2t54.5 -11.5t37.5 -27.5t14 -50q0 -20 -8.5 -44t-16.5 -42l-52 -117z" />
    <glyph glyph-name="hyphen" unicode="-" horiz-adv-x="321" 
d="M25 207v165h271v-165h-271z" />
    <glyph glyph-name="period" unicode="." horiz-adv-x="301" 
d="M256 81q0 -45 -25.5 -69t-79.5 -24q-55 0 -80.5 23t-25.5 70q0 45 25.5 69t80.5 24q53 0 79 -24t26 -69z" />
    <glyph glyph-name="slash" unicode="/" horiz-adv-x="505" 
d="M10 -92l283 847h192l-282 -847h-193z" />
    <glyph glyph-name="zero" unicode="0" horiz-adv-x="614" 
d="M300 -12q-76 0 -128.5 19.5t-85 58.5t-47 96.5t-14.5 133.5q0 150 68.5 226.5t219.5 76.5q77 0 130 -19.5t85.5 -58t46.5 -94t14 -127.5q0 -158 -68.5 -235t-220.5 -77zM308 130q13 0 23 6t17.5 23.5t11.5 50t4 85.5q0 51 -3.5 82t-10.5 48.5t-17 23t-23 5.5t-24 -6
t-18.5 -23t-12 -48t-4.5 -81q0 -52 3.5 -84.5t10.5 -50.5t17.5 -24.5t25.5 -6.5z" />
    <glyph glyph-name="one" unicode="1" horiz-adv-x="427" 
d="M32 0v104l71 7q11 1 13.5 5t2.5 15v304q0 8 -2 13.5t-10 7.5l-79 20l15 107h287v-452q0 -12 2.5 -15t13.5 -5l76 -7v-104h-390z" />
    <glyph glyph-name="two" unicode="2" horiz-adv-x="564" 
d="M31 0v124l130 130q39 39 63.5 64.5t38.5 43.5t19.5 31t5.5 28q0 11 -5.5 22t-25.5 11q-25 0 -34.5 -16t-9.5 -59l-188 15q0 66 24 106.5t61 62t82 29t88 7.5q62 0 104 -12t67.5 -34t36.5 -51.5t11 -65.5q0 -31 -9 -57t-24.5 -50t-37 -46.5t-45.5 -48.5l-108 -108h88
q10 0 13 13l12 63h146v-202h-503z" />
    <glyph glyph-name="three" unicode="3" horiz-adv-x="550" 
d="M394 268q62 -8 97.5 -46.5t35.5 -107.5q0 -54 -20.5 -92t-56.5 -61t-84 -33.5t-103 -10.5q-81 0 -152 25.5t-116 73.5l106 117q26 -25 57.5 -44.5t81.5 -19.5q35 0 57 13.5t22 51.5q0 33 -16.5 45.5t-45.5 12.5q-21 0 -38.5 -2t-39.5 -7v132l39 5q42 5 65.5 26t23.5 67
q0 15 -6.5 28t-32.5 13t-36.5 -15t-10.5 -60l-190 15q0 66 22.5 106.5t58 62.5t79.5 29t87 7q125 0 178 -41t53 -133q0 -33 -10.5 -59.5t-27 -45.5t-37 -31t-40.5 -17v-4z" />
    <glyph glyph-name="four" unicode="4" horiz-adv-x="612" 
d="M325 -67v111h-292v141l181 427l169 -74l-155 -334h97v126l189 31v-157h77v-160h-76v-111h-190z" />
    <glyph glyph-name="five" unicode="5" horiz-adv-x="574" 
d="M229 420l-11 -94l4 -3q16 10 43.5 22t75.5 12q89 0 141 -50t52 -156q0 -47 -16.5 -89.5t-50 -74.5t-83.5 -51t-116 -19q-93 0 -162.5 26t-111.5 75l103 116q27 -25 62 -45t86 -20q40 0 60.5 21t20.5 56q0 23 -7 35.5t-16.5 19t-20.5 8t-19 1.5q-19 0 -37.5 -9.5
t-31.5 -28.5l-134 53l24 358h253q11 0 14 13l13 55l122 9v-240h-257z" />
    <glyph glyph-name="six" unicode="6" horiz-adv-x="587" 
d="M360 455q0 41 -8 56.5t-40 15.5t-49.5 -30.5t-20.5 -107.5q24 9 54.5 14.5t63.5 5.5q42 0 79.5 -9.5t66 -31.5t45.5 -59t17 -93q0 -66 -22 -110t-58.5 -70.5t-84.5 -37t-101 -10.5q-77 0 -129.5 23.5t-84.5 66.5t-46 103.5t-14 135.5q0 57 13 118t45.5 111.5t87 83.5
t137.5 33q42 0 85.5 -7t79 -27t58 -56t22.5 -95zM242 266q2 -66 14.5 -97t49.5 -31q17 0 26.5 7t14 17.5t6 23t1.5 23.5q0 38 -11 54t-42 16q-14 0 -29.5 -4t-29.5 -9z" />
    <glyph glyph-name="seven" unicode="7" horiz-adv-x="548" 
d="M126 -67q9 102 36 184t60.5 143t66 101t51.5 59h-140q-11 0 -14 -12l-14 -76l-147 -11v262h523v-143q-91 -101 -143 -227.5t-57 -279.5h-222z" />
    <glyph glyph-name="eight" unicode="8" horiz-adv-x="547" 
d="M432 345q21 -13 39.5 -27t32 -32.5t21.5 -41.5t8 -54q0 -53 -21 -91.5t-57.5 -63t-86 -36t-107.5 -11.5q-246 0 -246 180q0 27 7.5 50t19.5 42t27.5 34.5t31.5 28.5q-30 24 -49.5 57t-19.5 83q0 48 17.5 85.5t50 63t77 38.5t98.5 13q106 0 166.5 -43t60.5 -129
q0 -45 -21 -83t-49 -63zM215 259q-20 -21 -27.5 -41t-7.5 -37q0 -28 17 -45.5t61 -17.5q39 0 53 15t14 35q0 16 -10 28.5t-26 23t-35.5 20t-38.5 19.5zM307 404q32 41 32 75q0 22 -14 38t-45 16q-32 0 -42.5 -15t-10.5 -32q0 -27 22 -46t58 -36z" />
    <glyph glyph-name="nine" unicode="9" horiz-adv-x="587" 
d="M122 120q24 -20 61 -37t74 -17q21 0 37 5t27.5 19.5t18 39t8.5 63.5q-20 -8 -46.5 -14.5t-66.5 -6.5q-37 0 -75 10t-68 33.5t-49 61.5t-19 93q0 59 19 102t53 71t81.5 42t104.5 14q77 0 130.5 -23t87 -65t49 -100t15.5 -129q0 -74 -13.5 -140t-47.5 -116t-90.5 -79
t-142.5 -29q-33 0 -66.5 6t-64.5 17t-56.5 26t-43.5 33zM348 313q-3 66 -17 101.5t-46 35.5q-15 0 -24 -7t-14.5 -17.5t-7 -23t-1.5 -23.5q0 -34 11.5 -57t43.5 -23q24 0 55 14z" />
    <glyph glyph-name="colon" unicode=":" horiz-adv-x="301" 
d="M256 81q0 -45 -25.5 -69t-79.5 -24q-55 0 -80.5 23t-25.5 70q0 45 25.5 69t80.5 24q53 0 79 -24t26 -69zM256 446q0 -45 -25.5 -69t-79.5 -24q-55 0 -80.5 23t-25.5 70q0 45 25.5 69t80.5 24q53 0 79 -24t26 -69z" />
    <glyph glyph-name="semicolon" unicode=";" horiz-adv-x="286" 
d="M78 -97l25 110q3 10 -6 13l-47 13l22 134q34 0 65 -2t54.5 -11.5t37.5 -27.5t14 -50q0 -20 -8.5 -44t-16.5 -42l-52 -117zM261 446q0 -45 -25.5 -69t-79.5 -24q-55 0 -80.5 23t-25.5 70q0 45 25.5 69t80.5 24q53 0 79 -24t26 -69z" />
    <glyph glyph-name="less" unicode="&#x3c;" horiz-adv-x="570" 
d="M55 204v180l404 129l41 -148l-268 -71l269 -75l-44 -145z" />
    <glyph glyph-name="equal" unicode="=" horiz-adv-x="570" 
d="M85 100v152h398v-152h-398zM85 311v152h398v-152h-398z" />
    <glyph glyph-name="greater" unicode="&#x3e;" horiz-adv-x="570" 
d="M100 74l-44 145l269 75l-268 71l41 148l403 -129v-180z" />
    <glyph glyph-name="question" unicode="?" horiz-adv-x="580" 
d="M129 206v187q36 3 74 7.5t69 16.5t51 34.5t20 60.5q0 36 -18 51t-41 15q-11 0 -20.5 -1t-20.5 -4q-8 -2 -11 -6t-4 -13l-11 -81l-172 -14v214q77 29 136 40t117 11q51 0 98.5 -9.5t84 -34.5t58 -67t21.5 -107q0 -43 -11.5 -83t-37.5 -71.5t-68 -52.5t-103 -26v-67h-211z
M340 81q0 -45 -25.5 -69t-79.5 -24q-55 0 -80.5 23t-25.5 70q0 45 25.5 69t80.5 24q54 0 79.5 -24t25.5 -69z" />
    <glyph glyph-name="at" unicode="@" horiz-adv-x="853" 
d="M628 -161q-34 -15 -83.5 -25t-123.5 -10q-83 0 -149.5 23t-113 68t-71.5 111t-25 152q0 94 28.5 170t80.5 129t125.5 82t163.5 29q77 0 140.5 -21t109.5 -61.5t71 -100t25 -137.5q0 -133 -57.5 -196.5t-154.5 -63.5q-35 0 -63 10.5t-48 45.5q-28 -30 -56.5 -43t-57.5 -13
q-51 0 -86 36t-35 108q0 53 15 100.5t43.5 84.5t70 58.5t95.5 21.5q47 0 81.5 -9.5t63.5 -22.5l-20 -127q-5 -32 -8.5 -57t-3.5 -52q0 -19 7 -29.5t30 -10.5q25 0 39 24q11 22 17 56.5t6 79.5t-13 83.5t-41 66.5t-72.5 44t-106.5 16q-74 0 -124.5 -27.5t-81.5 -70.5
t-44.5 -96.5t-13.5 -106.5q0 -115 63 -181t186 -66q45 0 85 8.5t79 22.5zM492 303q-5 4 -12.5 6t-14.5 2q-16 0 -32.5 -10t-29.5 -30.5t-21.5 -50t-8.5 -68.5q0 -33 7.5 -44t21.5 -11q28 0 61 29z" />
    <glyph glyph-name="A" unicode="A" horiz-adv-x="805" 
d="M422 0v103l80 9l-18 49h-216l-17 -49l78 -9v-103h-331v103l46 11q9 2 15.5 6t9.5 13l217 591h238l212 -593q3 -9 9 -12t15 -5l47 -11v-103h-385zM382 514h-7l-68 -210h140z" />
    <glyph glyph-name="B" unicode="B" horiz-adv-x="667" 
d="M16 0v103l63 7q11 2 13.5 5.5t2.5 14.5v462q0 11 -2.5 15t-13.5 5l-63 7v105h374q64 0 107 -13.5t68.5 -37.5t36 -56.5t10.5 -69.5q0 -36 -10.5 -63.5t-27.5 -48.5t-39 -34.5t-45 -21.5v-3q86 -10 125 -54.5t39 -119.5q0 -55 -21.5 -93.5t-59 -62.5t-88 -35t-109.5 -11
h-360zM335 143q48 0 71.5 18.5t23.5 66.5q0 26 -7 41t-18.5 23t-27 10.5t-32.5 2.5h-34v-162h24zM304 435q24 0 43.5 2.5t33.5 10.5t21.5 22.5t7.5 38.5q0 25 -8 39t-20 20.5t-27 8t-29 1.5h-15v-143h-7z" />
    <glyph glyph-name="C" unicode="C" horiz-adv-x="681" 
d="M636 46q-24 -13 -54.5 -24t-65 -18.5t-70.5 -11.5t-70 -4q-95 0 -163 25t-112 73t-65 117.5t-21 159.5q0 81 24 149.5t72.5 118.5t121 78t168.5 28q29 0 61 -4t63 -11.5t59.5 -18.5t50.5 -25v-232l-153 12l-15 98q-3 15 -15 19q-9 2 -24.5 3.5t-29.5 1.5
q-73 0 -115.5 -52t-42.5 -165q0 -115 40.5 -168t110.5 -53q14 0 31.5 1.5t28.5 3.5t15 5.5t6 17.5l15 96h149v-220z" />
    <glyph glyph-name="D" unicode="D" horiz-adv-x="738" 
d="M16 0v105l63 7q11 1 13.5 5t2.5 15v461q0 11 -2.5 14.5t-13.5 5.5l-63 7v104h349q94 0 162 -24.5t111.5 -70t64.5 -110.5t21 -146q0 -83 -22.5 -152t-68.5 -118t-117 -76t-168 -27h-332zM326 143q57 0 92 17.5t54 48.5t25.5 72t6.5 88q0 54 -8.5 93.5t-29 66t-55.5 39
t-88 12.5h-11v-437h14z" />
    <glyph glyph-name="E" unicode="E" horiz-adv-x="627" 
d="M16 0v103l63 7q11 2 13.5 5.5t2.5 14.5v463q0 11 -2.5 15t-13.5 5l-63 7v104h562v-239l-153 6l-14 75q-3 13 -17 13h-82v-142h202v-151h-202v-142h104q8 0 11 1.5t5 9.5l16 88h152v-243h-584z" />
    <glyph glyph-name="F" unicode="F" horiz-adv-x="608" 
d="M16 0v103l63 7q11 2 13.5 5.5t2.5 14.5v463q0 11 -2.5 15t-13.5 5l-63 7v104h558v-239l-153 6l-14 75q-3 13 -17 13h-78v-142h198v-151h-198v-154q0 -12 2.5 -15t13.5 -5l147 -8v-104h-459z" />
    <glyph glyph-name="G" unicode="G" horiz-adv-x="723" 
d="M673 253q-16 -1 -16 -14v-196q-68 -32 -141.5 -43.5t-137.5 -11.5q-103 0 -173 28.5t-112 78.5t-60 118.5t-18 147.5q0 81 24 150t72.5 119t122 78.5t171.5 28.5q23 0 51.5 -3t59.5 -10t62 -19t57 -29v-221l-154 13l-14 86q-2 13 -5.5 16t-11.5 5q-11 3 -26 4t-29 1
q-38 0 -66.5 -16t-48 -44.5t-29.5 -67.5t-10 -86q0 -50 8 -91t25 -70.5t45.5 -45.5t68.5 -16h17t19 1q11 1 14 6t3 15v82h-86l17 115h341v-105z" />
    <glyph glyph-name="H" unicode="H" horiz-adv-x="828" 
d="M437 0v103l63 7q11 2 13.5 5.5t2.5 14.5v164h-204v-163q0 -12 2.5 -15t13.5 -5l67 -8v-103h-379v103l63 7q11 2 13.5 5.5t2.5 14.5v462q0 11 -2.5 15t-13.5 5l-63 7v105h379v-105l-67 -8q-11 -2 -13.5 -5t-2.5 -14v-146h204v146q0 11 -2.5 15t-13.5 5l-63 7v105h379v-105
l-67 -8q-11 -2 -13.5 -5t-2.5 -14v-461q0 -12 2.5 -15t13.5 -5l67 -8v-103h-379z" />
    <glyph glyph-name="I" unicode="I" horiz-adv-x="417" 
d="M11 0v103l73 8q11 1 13.5 5t2.5 15v461q0 11 -2.5 15t-13.5 5l-73 7v105h399v-105l-77 -8q-11 -2 -13.5 -5t-2.5 -14v-461q0 -12 2.5 -15t13.5 -5l77 -8v-103h-399z" />
    <glyph glyph-name="J" unicode="J" horiz-adv-x="529" 
d="M224 593q0 10 -3 13.5t-13 4.5l-95 8v105h411v-105l-67 -8q-11 -2 -13.5 -5t-2.5 -14v-414q0 -97 -50 -143.5t-162 -46.5q-31 0 -63.5 3.5t-61 9.5t-51 14t-35.5 16v217l154 -11l10 -71q2 -11 7 -13t16 -2q9 0 14 4t5 19v419z" />
    <glyph glyph-name="K" unicode="K" horiz-adv-x="770" 
d="M492 0l-132 237l-48 -64v-41q0 -12 2.5 -15t13.5 -5l67 -8v-104h-379v104l63 7q11 1 13.5 5t2.5 15v462q0 11 -2.5 14.5t-13.5 5.5l-63 7v104h379v-104l-67 -8q-11 -2 -13.5 -5t-2.5 -14v-214l194 232l-62 8v105h299v-105l-34 -5q-14 -2 -19 -5.5t-12 -12.5l-151 -182
l153 -278q6 -11 12 -15.5t20 -6.5l64 -10v-104h-284z" />
    <glyph glyph-name="L" unicode="L" horiz-adv-x="629" 
d="M16 0v104l63 7q11 2 13.5 5.5t2.5 14.5v462q0 11 -2.5 15t-13.5 5l-63 7v104h395v-104l-83 -8q-11 -1 -13.5 -4.5t-2.5 -14.5v-449h103q8 0 11 1.5t5 9.5l16 109h153v-264h-584z" />
    <glyph glyph-name="M" unicode="M" horiz-adv-x="982" 
d="M583 0v103l82 7q11 1 13.5 5t2.5 15v260h-7l-90 -263h-222l-97 257h-7v-253q0 -12 2.5 -15.5t13.5 -4.5l85 -8v-103h-343v103l63 7q11 1 13.5 5t2.5 15v463q0 11 -2.5 14.5t-13.5 5.5l-63 7v104h324l151 -426h8l146 426h325v-103l-67 -8q-11 -2 -13.5 -5t-2.5 -14v-464
q0 -10 3 -14t13 -5l67 -8v-103h-387z" />
    <glyph glyph-name="N" unicode="N" horiz-adv-x="831" 
d="M518 0l-272 440v-309q0 -12 2.5 -15t13.5 -5l67 -8v-103h-313v103l63 7q11 2 13.5 5.5t2.5 14.5v464q0 11 -2.5 15t-13.5 5l-63 7v103h298l274 -445v313q0 11 -2.5 15t-13.5 5l-63 7v105h312v-105l-67 -8q-11 -2 -13.5 -5t-2.5 -14v-592h-220z" />
    <glyph glyph-name="O" unicode="O" horiz-adv-x="747" 
d="M367 -12q-94 0 -161 27.5t-109.5 76t-62 116t-19.5 147.5q0 81 22.5 151t68 121t114.5 80.5t161 29.5q93 0 159.5 -29t109 -79t62.5 -117t20 -142q0 -88 -22 -158.5t-67.5 -120t-114 -76.5t-161.5 -27zM376 156q29 0 53.5 9.5t42 32.5t27.5 62.5t10 100.5q0 58 -9 97.5
t-25.5 64t-40.5 35.5t-54 11q-31 0 -57 -11t-45 -36t-29.5 -65t-10.5 -97q0 -60 10 -99t28 -62.5t43.5 -33t56.5 -9.5z" />
    <glyph glyph-name="P" unicode="P" horiz-adv-x="641" 
d="M16 0v104l63 7q11 2 13.5 5.5t2.5 14.5v461q0 11 -2.5 15t-13.5 5l-63 7v105h369q69 0 115.5 -17t74.5 -46.5t39.5 -68t11.5 -81.5q0 -66 -19 -113.5t-54.5 -78t-86.5 -45t-114 -14.5h-41v-128q0 -12 2.5 -15.5t13.5 -4.5l143 -8v-104h-454zM315 402q12 0 27.5 2.5t29 12
t23 28.5t9.5 52q0 30 -9 46.5t-21.5 24t-26 9t-23.5 1.5h-13v-176h4z" />
    <glyph glyph-name="Q" unicode="Q" horiz-adv-x="746" 
d="M639 -179q-43 -23 -90 -37.5t-94 -14.5q-52 0 -86.5 13.5t-55 37t-29 53.5t-8.5 63q0 13 1 28t3 31q-70 12 -120.5 43t-82.5 78t-47 108t-15 131q0 81 22.5 151t68 121t114.5 80.5t161 29.5q93 0 159.5 -29t109 -79t62.5 -117t20 -142q0 -149 -64 -247t-197 -125
q-2 -8 -2 -13.5v-10.5q0 -30 11.5 -43t43.5 -13q14 0 32.5 3.5t44.5 12.5zM376 156q29 0 53.5 9.5t42 32.5t27.5 62.5t10 100.5q0 58 -8.5 97.5t-25 64t-40.5 35.5t-54 11q-31 0 -57.5 -11t-45.5 -36t-29.5 -65t-10.5 -97q0 -60 10 -99t28 -62.5t43.5 -33t56.5 -9.5z" />
    <glyph glyph-name="R" unicode="R" horiz-adv-x="700" 
d="M426 0l-69 236q-8 28 -18 38t-28 10v-151q0 -12 3.5 -15.5t14.5 -5.5l39 -7v-105h-352v105l63 7q11 1 13.5 5t2.5 15v461q0 11 -2.5 14.5t-13.5 5.5l-63 7v104h376q68 0 113.5 -16t73.5 -43.5t40 -65t12 -80.5q0 -74 -30.5 -118t-87.5 -68q19 -9 33.5 -27.5t24.5 -50.5
l35 -117q5 -12 12 -16.5t20 -6.5l62 -10v-105h-274zM316 420q18 0 34.5 2t29 10.5t20.5 25.5t8 47q0 39 -16.5 56t-57.5 17h-23v-158h5z" />
    <glyph glyph-name="S" unicode="S" horiz-adv-x="601" 
d="M397 485l-8 78q-2 11 -5 14t-11 5q-17 2 -27.5 2.5t-20.5 0.5q-35 0 -53 -15.5t-18 -38.5q0 -16 9 -27t24.5 -19.5t36 -14.5t43.5 -13q35 -10 72.5 -23.5t68.5 -38t51 -63.5t20 -99q0 -65 -23.5 -111.5t-64 -76t-94.5 -43.5t-115 -14q-33 0 -69.5 4t-70.5 10t-62.5 14
t-45.5 16v226h157l21 -100q2 -8 5 -11t12 -5q7 -1 23 -2.5t30 -1.5q45 0 67 16.5t22 43.5q0 18 -9.5 30t-26 20t-38 14t-45.5 12q-35 9 -71.5 21t-66.5 35.5t-49 62t-19 99.5q0 62 21.5 107.5t59.5 76.5t90 46t113 15q67 0 125 -13.5t100 -31.5v-220z" />
    <glyph glyph-name="T" unicode="T" horiz-adv-x="738" 
d="M143 0v104l103 8q11 1 13.5 5t2.5 15v446h-52q-8 0 -11 -1.5t-5 -9.5l-16 -87l-153 -5v249h688v-249l-151 5l-16 87q-2 8 -5 9.5t-11 1.5h-51v-446q0 -11 2.5 -14.5t13.5 -4.5l110 -9v-104h-462z" />
    <glyph glyph-name="U" unicode="U" horiz-adv-x="783" 
d="M516 593q0 11 -2.5 15t-13.5 5l-63 7v104h343v-104l-67 -8q-11 -2 -13.5 -5t-2.5 -14v-316q0 -78 -21.5 -133t-61.5 -89.5t-95.5 -50.5t-123.5 -16q-160 0 -234.5 70t-74.5 225v310q0 11 -2.5 15t-13.5 5l-63 7v104h379v-104l-67 -8q-11 -2 -13.5 -5t-2.5 -14v-275
q0 -36 2 -64.5t12.5 -49t32 -31.5t60.5 -11q34 0 54.5 8.5t32 27t15.5 47t4 68.5v280z" />
    <glyph glyph-name="V" unicode="V" horiz-adv-x="778" 
d="M259 0l-185 593q-3 9 -9 12t-15 5l-45 11l10 103h369v-103l-79 -9l111 -403h13l111 403l-79 9l10 103h303v-103l-42 -11q-9 -2 -16 -6t-9 -13l-163 -591h-285z" />
    <glyph glyph-name="W" unicode="W" horiz-adv-x="1093" 
d="M614 0l-63 285h-10l-55 -285h-279l-136 588q-2 10 -5 13.5t-11 5.5l-51 14l10 103h352v-103l-78 -9l77 -417h13l93 407h204l92 -405h13l76 415l-78 9l10 103h301v-103l-50 -13q-9 -2 -13 -6t-6 -13l-121 -589h-285z" />
    <glyph glyph-name="X" unicode="X" horiz-adv-x="847" 
d="M424 0v103l82 9l-107 126l-107 -126l80 -9v-103h-339v102l62 12q12 2 17.5 6.5t12.5 12.5l185 211l-211 249q-8 13 -24 17l-57 11l10 103h396v-103l-81 -9l111 -133l118 133l-81 9l10 103h313v-103l-51 -11q-16 -4 -28 -19l-191 -216l209 -244q13 -15 28 -18l52 -10v-103
h-409z" />
    <glyph glyph-name="Y" unicode="Y" horiz-adv-x="734" 
d="M150 0v104l105 8q11 1 13.5 5t2.5 15v128l-196 333q-5 8 -8.5 11t-12.5 5l-48 12l10 103h362v-103l-71 -9l86 -171h13l88 171l-71 9l10 103h295v-103l-46 -12q-9 -2 -13 -7t-9 -13l-172 -328v-129q0 -11 2.5 -14.5t13.5 -4.5l113 -9v-104h-467z" />
    <glyph glyph-name="Z" unicode="Z" horiz-adv-x="700" 
d="M51 0v134l332 445h-142q-8 0 -11 -1.5t-5 -9.5l-19 -92l-149 -5v253h582v-138l-324 -442h167q8 0 11 1.5t5 9.5l19 107h148v-262h-614z" />
    <glyph glyph-name="bracketleft" unicode="[" horiz-adv-x="371" 
d="M50 -143v867h285v-99l-63 -13q-16 -3 -16 -21v-601q0 -18 16 -21l63 -13v-99h-285z" />
    <glyph glyph-name="backslash" unicode="\" horiz-adv-x="503" 
d="M300 -92l-280 847h192l281 -847h-193z" />
    <glyph glyph-name="bracketright" unicode="]" horiz-adv-x="371" 
d="M36 -143v99l63 13q16 3 16 21v601q0 18 -16 21l-63 13v99h285v-867h-285z" />
    <glyph glyph-name="asciicircum" unicode="^" horiz-adv-x="669" 
d="M440 299l-108 195l-105 -195h-197l197 365h213l199 -365h-199z" />
    <glyph glyph-name="underscore" unicode="_" 
d="M0 -181v146h500v-146h-500z" />
    <glyph glyph-name="grave" unicode="`" 
d="M311 557l-181 152l104 95l151 -183z" />
    <glyph glyph-name="a" unicode="a" horiz-adv-x="574" 
d="M345 0l-11 50l-7 2q-21 -22 -57 -43t-98 -21q-48 0 -77.5 14.5t-46 37.5t-22.5 51.5t-6 55.5q0 75 47.5 109t144.5 41l95 7v56q0 9 -0.5 17.5t-4 15.5t-11 11.5t-21.5 4.5q-23 0 -30 -11.5t-7 -44.5l-196 14q0 55 22.5 89t57 52.5t77 24.5t81.5 6q61 0 105.5 -9t74 -30
t43.5 -57t14 -90v-221q0 -12 2.5 -15t13.5 -5l45 -8v-104h-228zM307 209l-23 -2q-25 -2 -37 -12t-12 -33q0 -19 11 -28.5t29 -9.5q14 0 32 6v79z" />
    <glyph glyph-name="b" unicode="b" horiz-adv-x="622" 
d="M40 0q7 40 12 76t5 73v458q0 16 -13 21l-50 19l14 108h257v-268l7 -1q27 28 59 40.5t73 12.5q39 0 74.5 -13.5t63 -45t43.5 -82t16 -124.5q0 -77 -16 -131.5t-44.5 -89t-68.5 -50t-88 -15.5t-83 20t-49 42l-8 -2l-6 -48h-198zM267 159q7 -5 20.5 -8t26.5 -3q29 0 46.5 31
t17.5 88q0 10 -1.5 28.5t-7.5 37t-19 32t-36 13.5q-11 0 -24 -4t-23 -10v-205z" />
    <glyph glyph-name="c" unicode="c" horiz-adv-x="534" 
d="M502 45q-41 -25 -94.5 -41t-113.5 -16q-72 0 -124.5 20.5t-87 56.5t-51 84.5t-16.5 105.5q0 69 21 122t59 89t90 54.5t115 18.5q31 0 61 -4.5t57 -11.5t49 -16.5t37 -20.5v-181l-147 5l-12 67q-2 7 -4 11.5t-8 6.5q-13 4 -33 4q-12 0 -23.5 -6t-20.5 -20t-14.5 -37
t-5.5 -58q0 -45 8.5 -72.5t22.5 -42t31.5 -19.5t34.5 -5q38 0 69.5 8.5t52.5 15.5z" />
    <glyph glyph-name="d" unicode="d" horiz-adv-x="626" 
d="M393 0l-10 50l-8 2q-28 -31 -66 -47.5t-89 -16.5q-45 0 -82 14.5t-63 47t-40 85t-14 127.5q0 77 19 130t50 85.5t69 47t76 14.5q42 0 72 -12t58 -33v113q0 16 -13 21l-51 19l14 108h250v-625q0 -11 2.5 -14t13.5 -5l45 -7v-104h-233zM355 370q-18 10 -36 10
q-20 0 -34.5 -9.5t-23.5 -26t-13 -37.5t-4 -44t3 -45.5t10.5 -40t21 -28.5t34.5 -11t42 8v224z" />
    <glyph glyph-name="e" unicode="e" horiz-adv-x="543" 
d="M521 46q-57 -26 -113.5 -42t-116.5 -16q-76 0 -129 21.5t-85.5 59t-47 88.5t-14.5 111q0 69 21 119.5t57.5 84.5t85.5 50.5t104 16.5q53 0 96 -14.5t73.5 -45.5t47 -79.5t16.5 -116.5q0 -8 -0.5 -25t-2.5 -36h-276q3 -43 24 -61t59 -18q17 0 55 6t100 25zM316 325
q1 23 -2 37t-9 21.5t-13.5 10t-15.5 2.5q-17 0 -28.5 -13.5t-13.5 -57.5h82z" />
    <glyph glyph-name="f" unicode="f" horiz-adv-x="468" 
d="M14 0v105l49 6q11 2 13.5 6t2.5 15v254q0 5 -1 7.5t-7 2.5h-62v132h70v33q0 57 17 96.5t48.5 64t76.5 35t102 10.5q39 0 76.5 -6t67 -24t47.5 -51t18 -86l-195 -23q1 36 -3.5 50t-20.5 14t-19.5 -14t-3.5 -32v-57q0 -5 1 -7.5t7 -2.5h151v-132h-159v-259q0 -12 3.5 -15.5
t14.5 -4.5l127 -13v-104h-421z" />
    <glyph glyph-name="g" unicode="g" horiz-adv-x="594" 
d="M491 420l-5 -5q12 -15 23 -39.5t11 -57.5q0 -39 -17.5 -69.5t-47.5 -51.5t-69 -32t-83 -11q-23 0 -41 1.5t-29 3.5l-32 -34l89 -5q64 -4 115.5 -7.5t88 -18t56.5 -45t20 -87.5q0 -92 -79.5 -139.5t-217.5 -47.5q-72 0 -121 8.5t-79 24t-43 37.5t-13 49q0 34 16 56.5
t37 43.5q-26 11 -36 28.5t-10 40.5q0 34 27 60.5t77 62.5q-42 17 -70.5 55.5t-28.5 98.5q0 40 15 76t46 63.5t78.5 43.5t111.5 16q32 0 58 -3t42 -8h198v-107zM346 339q0 33 -17 50.5t-43 17.5q-25 0 -43.5 -15.5t-18.5 -53.5q0 -26 15.5 -42.5t44.5 -16.5q26 0 44 16t18 44
zM177 -38q-15 -18 -15 -34q0 -14 14.5 -22t35 -12t41 -4.5t32.5 -0.5q35 0 60 8t25 27q0 18 -18.5 23.5t-42.5 7.5z" />
    <glyph glyph-name="h" unicode="h" horiz-adv-x="619" 
d="M349 0v339q0 21 -4 32t-21 11q-11 0 -23.5 -4t-23.5 -9v-239q0 -12 2.5 -15.5t12.5 -5.5l34 -5v-104h-316v104l40 7q11 2 13.5 5.5t2.5 14.5v476q0 17 -13 21l-51 19l14 108h258v-270l6 -2q53 56 136 56q75 0 109.5 -40.5t34.5 -127.5v-240q0 -12 2.5 -15t13.5 -5l43 -7
v-104h-270z" />
    <glyph glyph-name="i" unicode="i" horiz-adv-x="336" 
d="M276 693q0 -56 -30 -86.5t-87 -30.5q-56 0 -86.5 30.5t-30.5 86.5q0 55 30.5 84.5t86.5 29.5q57 0 87 -29.5t30 -84.5zM14 0v104l36 7q11 2 13.5 5.5t2.5 14.5v249q0 17 -13 21l-51 19l14 108h261v-397q0 -12 2.5 -15t13.5 -5l37 -7v-104h-316z" />
    <glyph glyph-name="j" unicode="j" horiz-adv-x="332" 
d="M64 380q0 15 -14 21l-48 19l14 108h259v-568q0 -50 -14.5 -85t-41 -57t-64 -31.5t-84.5 -9.5q-38 0 -70.5 7t-58 17t-42.5 20t-23 15l50 108q11 -5 34.5 -13.5t50.5 -8.5q10 0 19.5 1t16.5 8t11.5 21t4.5 40v388zM274 693q0 -56 -30.5 -86.5t-87.5 -30.5
q-55 0 -85.5 30.5t-30.5 86.5q0 55 30.5 84.5t85.5 29.5q57 0 87.5 -29.5t30.5 -84.5z" />
    <glyph glyph-name="k" unicode="k" horiz-adv-x="649" 
d="M405 0l-104 240l-24 -24v-85q0 -12 2.5 -15t13.5 -5l38 -7v-104h-318v104l37 7q11 2 13.5 5.5t2.5 14.5v476q0 16 -13 21l-51 19l14 108h261v-372l154 145h165v-104l-47 -7q-10 -2 -14 -4.5t-11 -10.5l-51 -49l104 -227q5 -11 12 -14t18 -5l38 -5v-102h-240z" />
    <glyph glyph-name="l" unicode="l" horiz-adv-x="336" 
d="M13 0v104l37 7q11 2 13.5 5.5t2.5 14.5v476q0 16 -13 21l-51 19l14 108h261v-624q0 -12 2.5 -15t13.5 -5l38 -7v-104h-318z" />
    <glyph glyph-name="m" unicode="m" horiz-adv-x="866" 
d="M596 0v344q0 23 -5 30t-16 7q-13 0 -33 -10v-240q0 -13 2.5 -17t13.5 -6l18 -4v-104h-245v342q0 23 -5.5 30.5t-16.5 7.5q-14 0 -32 -9v-240q0 -13 2 -17.5t13 -6.5l18 -3v-104h-300v104l40 7q11 2 13.5 5.5t2.5 14.5v249q0 17 -13 21l-51 19l14 108h220l8 -44h7
q27 24 61.5 39.5t76.5 15.5q45 0 76.5 -13.5t49.5 -43.5q9 8 23 17.5t33 18.5t42 15t48 6q75 0 110.5 -40t35.5 -128v-240q0 -12 2.5 -15t13.5 -5l43 -7v-104h-270z" />
    <glyph glyph-name="n" unicode="n" horiz-adv-x="619" 
d="M349 0v336q0 26 -6.5 35.5t-22.5 9.5q-17 0 -43 -12v-238q0 -12 3 -16t14 -6l25 -5v-104h-309v104l40 7q11 2 13.5 5.5t2.5 14.5v249q0 17 -13 21l-50 19l14 108h219l8 -44h7q35 26 74.5 40.5t88.5 14.5q75 0 110.5 -40t35.5 -128v-240q0 -12 2.5 -15t13.5 -5l43 -7v-104
h-270z" />
    <glyph glyph-name="o" unicode="o" horiz-adv-x="594" 
d="M293 -12q-73 0 -126 19t-86.5 55t-49.5 87t-16 115q0 62 17.5 113t53 87t90 55.5t127.5 19.5q75 0 127.5 -20t85.5 -55.5t48 -84.5t15 -108q0 -64 -17 -116.5t-52 -89.5t-89 -57t-128 -20zM298 128q12 0 23.5 6t19.5 21.5t13 42.5t5 69q0 39 -4.5 64.5t-12.5 39.5
t-19 19.5t-23 5.5t-23.5 -5t-20.5 -19t-14.5 -39.5t-5.5 -66.5t4.5 -68t13 -42.5t20 -21.5t24.5 -6z" />
    <glyph glyph-name="p" unicode="p" horiz-adv-x="625" 
d="M2 -212v105l38 6q11 2 15.5 6t4.5 16v459q0 16 -13 21l-50 19l14 108h218l9 -44l7 -2q42 32 84.5 44.5t77.5 12.5q42 0 77.5 -13.5t62 -45t41.5 -82t15 -124.5q0 -79 -16 -133.5t-43.5 -88.5t-64.5 -49.5t-78 -15.5q-35 0 -72 12.5t-64 33.5v-110q0 -12 3 -15.5t14 -4.5
l114 -11v-104h-394zM269 157q14 -5 26.5 -8t26.5 -3q32 0 45 33t13 88q0 52 -16 81.5t-48 29.5q-11 0 -23.5 -3t-23.5 -9v-209z" />
    <glyph glyph-name="q" unicode="q" horiz-adv-x="608" 
d="M261 -212v105l98 8q23 1 23 17v128l-7 3q-27 -27 -61.5 -44t-85.5 -17q-45 0 -83 15t-65.5 48t-43 85t-15.5 126q0 77 20 130t52 85.5t71 47t77 14.5q42 0 75.5 -16t60.5 -42l17 47h178q-3 -47 -5.5 -94.5t-2.5 -90.5v-425q0 -11 2.5 -14t13.5 -5l45 -7v-104h-364z
M354 370q-23 10 -43 10q-18 0 -30.5 -9.5t-20.5 -26t-12 -38t-4 -45.5q0 -25 2.5 -47t9 -38.5t19 -26.5t32.5 -10q13 0 24 2.5t23 6.5v222z" />
    <glyph glyph-name="r" unicode="r" horiz-adv-x="513" 
d="M10 0v105l40 7q11 2 13.5 5.5t2.5 14.5v248q0 16 -13 21l-51 19l14 108h219l15 -92h10q25 50 57 76.5t83 26.5q11 0 24 -1t26 -2.5t24.5 -3.5t18.5 -4v-211l-169 5l-8 35q-4 14 -13 14q-5 0 -12.5 -2.5t-13.5 -5.5v-228q0 -12 3 -16t14 -4l104 -11v-104h-388z" />
    <glyph glyph-name="s" unicode="s" horiz-adv-x="515" 
d="M331 375l-5 25q-2 7 -4 9t-7 4q-18 6 -48 6q-20 0 -35.5 -5t-15.5 -22q0 -21 26.5 -29t64.5 -16q31 -6 64.5 -14.5t61.5 -26.5t46 -48.5t18 -80.5q0 -48 -18 -84t-51 -59t-79 -34.5t-102 -11.5q-75 0 -131 12t-83 26v128l147 -9l6 -30q2 -9 5 -12t10 -5q17 -5 55 -5
q56 0 56 35q0 11 -7.5 18t-21 11.5t-31.5 7.5t-38 6q-31 5 -63.5 14t-59.5 27.5t-44.5 51t-17.5 84.5q0 50 20 86.5t53.5 59.5t77.5 34t92 11q32 0 64 -3t60 -7.5t50.5 -10.5t35.5 -11v-140z" />
    <glyph glyph-name="t" unicode="t" horiz-adv-x="463" 
d="M445 36q-35 -19 -87 -33.5t-100 -14.5q-53 0 -89 11t-58.5 34t-32 58.5t-9.5 84.5v210q0 5 -1 7.5t-7 2.5h-68v122q75 8 112 51t45 131h130v-162q0 -10 10 -10h134v-132h-144v-182q0 -42 10 -59t49 -17q18 0 38.5 4t34.5 9z" />
    <glyph glyph-name="u" unicode="u" horiz-adv-x="619" 
d="M386 0l-7 42l-7 2q-30 -24 -66.5 -40t-98.5 -16q-75 0 -110.5 41t-35.5 129v235q0 12 -2.5 14.5t-13.5 4.5l-45 5l13 111h259v-338q0 -26 5.5 -36.5t23.5 -10.5q14 0 24.5 3.5t18.5 8.5v238q0 12 -2.5 14.5t-13.5 4.5l-26 5l13 111h240v-398q0 -8 2 -12t13 -6l46 -7v-105
h-230z" />
    <glyph glyph-name="v" unicode="v" horiz-adv-x="667" 
d="M209 0l-149 394q-5 9 -8.5 12t-12.5 5l-41 9l20 108h330v-108l-59 -8l69 -205h12l74 205l-62 8l15 108h272v-108l-38 -6q-9 -2 -15 -4.5t-10 -12.5l-151 -397h-246z" />
    <glyph glyph-name="w" unicode="w" horiz-adv-x="917" 
d="M537 0l-56 273h-10l-49 -273h-250l-111 392q-2 9 -6 12t-13 5l-44 11l20 108h305v-110l-47 -6l47 -202h12l64 306h201l68 -307h10l44 203l-49 6l15 110h231v-108l-36 -7q-8 -2 -13.5 -6t-8.5 -14l-104 -393h-220z" />
    <glyph glyph-name="x" unicode="x" horiz-adv-x="631" 
d="M295 0v103l29 9l-41 55l-58 -54l40 -9v-104h-249v103l34 7q9 2 16 5.5t15 11.5l121 116l-135 150q-7 8 -11 11t-13 6l-37 11l10 107h314v-107l-32 -8l46 -53l58 53l-42 8l10 107h238v-107l-44 -10q-9 -3 -13 -7l-12 -12l-113 -108l133 -154q7 -8 13.5 -13t15.5 -7l33 -6
v-104h-326z" />
    <glyph glyph-name="y" unicode="y" horiz-adv-x="657" 
d="M123 -212v107l78 10q14 2 21 6.5t12 15.5l27 57l-201 410q-3 9 -7.5 12t-13.5 5l-41 9l20 108h319v-108l-59 -8l87 -189h12l76 189l-62 8l15 108h253v-108l-32 -6q-8 -2 -14.5 -4.5t-10.5 -12.5l-195 -490l111 -13v-106h-395z" />
    <glyph glyph-name="z" unicode="z" horiz-adv-x="547" 
d="M32 0v114l236 293h-79q-11 0 -14 -13l-12 -48l-144 -9v191h478v-116l-229 -292h79q13 0 16 13l12 64l149 6v-203h-492z" />
    <glyph glyph-name="braceleft" unicode="{" horiz-adv-x="384" 
d="M334 -151q-75 -1 -125.5 6t-81 24t-44 46.5t-13.5 74.5q0 22 2.5 41.5t5 40t5 44.5t2.5 54t-11 42.5t-44 16.5v99q33 4 44 16.5t11 42.5t-2.5 54t-5 44.5t-5 40t-2.5 40.5q0 45 13.5 74.5t44 46.5t81 24t125.5 6l10 -102q-30 -8 -43 -21.5t-13 -50.5q0 -38 9 -75t9 -79
q0 -43 -13.5 -70t-44.5 -41q31 -14 44.5 -40.5t13.5 -69.5q0 -42 -9 -79t-9 -76q0 -37 13 -50.5t43 -21.5z" />
    <glyph glyph-name="bar" unicode="|" horiz-adv-x="312" 
d="M60 -143v898h192v-898h-192z" />
    <glyph glyph-name="braceright" unicode="}" horiz-adv-x="384" 
d="M40 -49q30 8 43 21.5t13 50.5q0 39 -9 76t-9 79q0 43 13.5 69.5t44.5 40.5q-31 14 -44.5 41t-13.5 70q0 42 9 79t9 75q0 37 -13 50.5t-43 21.5l10 102q75 1 125.5 -6t81 -24t44 -46.5t13.5 -74.5q0 -21 -2.5 -40.5t-5 -40t-5 -44.5t-2.5 -54t11 -42.5t44 -16.5v-99
q-33 -4 -44 -16.5t-11 -42.5t2.5 -54t5 -44.5t5 -40t2.5 -41.5q0 -45 -13.5 -74.5t-44 -46.5t-81 -24t-125.5 -6z" />
    <glyph glyph-name="asciitilde" unicode="~" horiz-adv-x="566" 
d="M539 455q-14 -93 -45.5 -131.5t-82.5 -38.5q-27 0 -56 7t-57 16t-54.5 16t-48.5 7q-24 0 -40.5 -7t-30.5 -36l-97 49q6 32 19 61t31.5 51t42 35t49.5 13q29 0 56.5 -7t54 -16t52 -16t49.5 -7q23 0 34.5 8t20.5 36z" />
    <glyph glyph-name="uni00A0" unicode="&#xa0;" horiz-adv-x="182" 
 />
    <glyph glyph-name="sterling" unicode="&#xa3;" horiz-adv-x="574" 
d="M23 0l-19 121q17 5 30 11.5t21.5 20.5t12.5 37.5t4 62.5v9h-60v148h60v20q0 40 9 81.5t36.5 75t78 55t133.5 21.5q41 0 82 -7t73.5 -26.5t53 -55.5t20.5 -95l-190 -24q0 38 -6 53.5t-34 15.5q-16 0 -25.5 -8t-14.5 -20t-6 -26t-1 -26v-34h110v-148h-110q0 -38 -15.5 -75
t-39.5 -61h151q11 0 14 13l15 73h146v-212h-529z" />
    <glyph glyph-name="currency" unicode="&#xa4;" horiz-adv-x="570" 
d="M447 -13l-83 83q-22 -10 -49 -16t-57 -6q-32 0 -59 6t-49 17l-83 -84l-104 105l83 88q-9 23 -13 48.5t-4 49.5q0 23 4 47.5t14 45.5l-81 86l107 106l80 -80q48 25 111 25q30 0 58.5 -5.5t51.5 -16.5l77 76l103 -104l-77 -82q9 -21 12.5 -45t3.5 -49t-5 -52.5t-16 -50.5
l82 -86zM262 191q35 0 52.5 25.5t17.5 61.5q0 40 -18 62.5t-54 22.5q-35 0 -52.5 -23.5t-17.5 -61.5q0 -36 17 -61.5t55 -25.5z" />
    <glyph glyph-name="brokenbar" unicode="&#xa6;" horiz-adv-x="312" 
d="M60 -143v388h192v-388h-192zM60 420v335h192v-335h-192z" />
    <glyph glyph-name="section" unicode="&#xa7;" horiz-adv-x="597" 
d="M60 36l147 -9l9 -45q1 -5 3 -8t9 -6q8 -4 20 -6t37 -2q58 0 58 34q0 12 -8.5 19.5t-22.5 13.5t-33 10.5t-40 8.5q-30 7 -62 16t-58 26.5t-42.5 45t-16.5 70.5q0 50 21.5 83t50.5 58q-23 19 -37 47t-14 67q0 45 18.5 78.5t50.5 56t74.5 33.5t90.5 11q32 0 64 -3t60 -7.5
t50 -10.5t35 -11v-150l-147 8l-6 36q-1 11 -13 15q-11 4 -21 5.5t-28 1.5q-20 0 -36 -8.5t-16 -24.5q0 -20 28.5 -29t68.5 -19q30 -7 62.5 -18t59.5 -29.5t44 -47t17 -72.5q0 -42 -16 -77t-45 -56q18 -17 29 -40t11 -55q0 -97 -63.5 -142.5t-176.5 -45.5q-38 0 -74 4t-65 10
t-49.5 12.5t-27.5 11.5v140zM242 295q-8 -8 -13.5 -17t-5.5 -22q0 -17 21 -26.5t53 -17.5l50 -14q25 15 25 37q0 15 -19.5 23.5t-51.5 18.5z" />
    <glyph glyph-name="dieresis" unicode="&#xa8;" 
d="M226 672q0 -38 -23.5 -61.5t-62.5 -23.5q-38 0 -62.5 23.5t-24.5 61.5q0 39 24.5 61.5t62.5 22.5q39 0 62.5 -22.5t23.5 -61.5zM441 672q0 -38 -23.5 -61.5t-62.5 -23.5t-63 23.5t-24 61.5q0 39 24 61.5t63 22.5t62.5 -22.5t23.5 -61.5z" />
    <glyph glyph-name="copyright" unicode="&#xa9;" horiz-adv-x="778" 
d="M728 326q0 -76 -25 -138.5t-69.5 -106.5t-107 -68.5t-137.5 -24.5q-84 0 -147 25t-106 68.5t-64.5 102.5t-21.5 128q0 80 26.5 142.5t73 105.5t108.5 66t133 23q78 0 140.5 -23t106 -65t67 -101.5t23.5 -133.5zM391 81q111 0 173.5 63.5t62.5 175.5q0 57 -17.5 101
t-49 74t-75 45.5t-94.5 15.5t-94.5 -16t-75.5 -47t-50 -76.5t-18 -103.5q0 -109 62.5 -170.5t175.5 -61.5zM515 156q-20 -12 -53.5 -18t-63.5 -6q-51 0 -86.5 13.5t-57 37.5t-31.5 57.5t-10 73.5q0 91 47 140.5t140 49.5q34 0 66 -6.5t50 -13.5v-117h-66l-4 52q-20 8 -44 8
q-40 0 -59.5 -24.5t-19.5 -85.5q0 -21 3.5 -40.5t12.5 -34.5t25 -24t41 -9t41 8l8 51h61v-112z" />
    <glyph glyph-name="guillemotleft" unicode="&#xab;" horiz-adv-x="495" 
d="M97 103l-84 152l89 153h162l-85 -141q-4 -6 -4 -9.5t3 -9.5l79 -145h-160zM308 103l-84 152l89 153h162l-85 -141q-4 -6 -4 -9.5t3 -9.5l79 -145h-160z" />
    <glyph glyph-name="logicalnot" unicode="&#xac;" horiz-adv-x="570" 
d="M332 152v95h-256v153h397v-248h-141z" />
    <glyph glyph-name="uni00AD" unicode="&#xad;" horiz-adv-x="311" 
d="M25 207v165h271v-165h-271z" />
    <glyph glyph-name="registered" unicode="&#xae;" horiz-adv-x="463" 
d="M428 480q0 -43 -14.5 -79t-41 -61.5t-62.5 -40t-79 -14.5q-48 0 -84.5 14.5t-61 40t-37.5 59.5t-13 74q0 45 15.5 81.5t42 62t62.5 39t77 13.5q45 0 81.5 -13.5t62 -38.5t39 -60t13.5 -77zM370 477q0 68 -39 103t-99 35q-29 0 -54 -9.5t-44 -27.5t-29.5 -44.5
t-10.5 -59.5q0 -63 37 -99t101 -36t101 37t37 101zM260 384l-17 59q-2 8 -5.5 10.5t-10.5 2.5h-8v-33q0 -6 6 -7l13 -2v-30h-90v30l13 2q5 1 5 7v111q0 6 -5 7l-13 2v32h90q42 0 57.5 -16.5t15.5 -37.5q0 -20 -10 -32.5t-23 -16.5q5 -2 10 -6t9 -14l10 -30q2 -5 8 -6l13 -2
v-30h-68zM233 493q12 0 18.5 4.5t6.5 18.5t-8 17.5t-16 3.5h-15v-44h14z" />
    <glyph glyph-name="macron" unicode="&#xaf;" 
d="M86 587v130h327v-130h-327z" />
    <glyph glyph-name="degree" unicode="&#xb0;" horiz-adv-x="304" 
d="M152 623q17 0 30.5 14.5t13.5 32.5t-13.5 31.5t-30.5 13.5q-16 0 -30 -13.5t-14 -33.5q0 -17 13 -31t31 -14zM278 670q0 -27 -9.5 -50.5t-26.5 -40t-40 -26t-50 -9.5q-55 0 -90.5 34.5t-35.5 88.5q0 29 10 52t27.5 40t40.5 26t48 9q26 0 49 -9t40 -25.5t27 -39t10 -50.5z
" />
    <glyph glyph-name="plusminus" unicode="&#xb1;" horiz-adv-x="570" 
d="M86 0v152h397v-152h-397zM206 139v109h-120v153h120v130h156v-130h121v-153h-121v-109h-156z" />
    <glyph glyph-name="mu" unicode="&#xb5;" horiz-adv-x="629" 
d="M388 0l-8 42l-6 1q-20 -23 -49 -36.5t-59 -18.5l16 -164h-220v704h211v-335q0 -31 7.5 -40t22.5 -9q8 0 20 3t23 8v373h211v-398q0 -8 2 -12t12 -6l47 -7v-105h-230z" />
    <glyph glyph-name="paragraph" unicode="&#xb6;" horiz-adv-x="727" 
d="M453 -133v661h-56v-661h-221v87l63 7q11 2 14 6.5t3 13.5v181q-117 6 -169 68t-52 165q0 69 22 116.5t60.5 77.5t90.5 43t112 13h357v-104l-67 -8q-11 -2 -13.5 -5t-2.5 -14v-533q0 -12 3 -15t13 -5l67 -8v-86h-224z" />
    <glyph glyph-name="periodcentered" unicode="&#xb7;" horiz-adv-x="283" 
d="M247 338q0 -45 -25.5 -69t-79.5 -24q-55 0 -80.5 23t-25.5 70q0 45 25.5 69t80.5 24q54 0 79.5 -24t25.5 -69z" />
    <glyph glyph-name="cedilla" unicode="&#xb8;" 
d="M139 -190q5 -1 9.5 -1h9.5q38 0 51 13.5t13 33.5q0 23 -19.5 29.5t-41.5 7.5l17 137l86 -8l-9 -68q13 -3 28 -9.5t27.5 -17.5t20.5 -28.5t8 -41.5q0 -26 -10 -50t-30.5 -42.5t-52 -29.5t-75.5 -11q-14 0 -27.5 1.5t-11.5 1.5z" />
    <glyph glyph-name="guillemotright" unicode="&#xbb;" horiz-adv-x="495" 
d="M27 103l79 147q3 6 3 9.5t-4 9.5l-85 139h162l89 -152l-84 -153h-160zM238 103l79 147q3 6 3 9.5t-4 9.5l-85 139h162l89 -152l-84 -153h-160z" />
    <glyph glyph-name="multiply" unicode="&#xd7;" horiz-adv-x="570" 
d="M285 212l-92 -92l-111 110l93 92l-93 92l111 111l92 -92l93 92l110 -111l-92 -92l92 -92l-110 -110z" />
    <glyph glyph-name="divide" unicode="&#xf7;" horiz-adv-x="570" 
d="M378 138q0 -39 -22.5 -61.5t-70.5 -22.5t-71 22t-23 62q0 35 23 59.5t71 24.5t70.5 -24.5t22.5 -59.5zM86 245v152h397v-152h-397zM378 503q0 -38 -22.5 -61t-70.5 -23t-71 22t-23 62q0 35 23 59.5t71 24.5t70.5 -24.5t22.5 -59.5z" />
    <glyph glyph-name="florin" unicode="&#x192;" horiz-adv-x="599" 
d="M342 263l-26 -155q-12 -74 -34.5 -120.5t-55 -72.5t-75 -35t-95.5 -9q-54 0 -105.5 17t-83.5 43l54 123q28 -20 58.5 -32t56.5 -12q18 0 32 2t25.5 10.5t19.5 27t14 51.5l28 152q2 10 -7 10h-88l20 122h98l12 71q10 57 27 96.5t43 64t63.5 35.5t89.5 11q51 0 105.5 -12
t106.5 -41l-26 -164l-129 12l-1 57q-1 5 -2.5 8t-8.5 5q-17 5 -32 5q-19 0 -31 -11t-17 -43l-13 -84q-1 -10 8 -10h109l-20 -122h-120z" />
    <glyph glyph-name="circumflex" unicode="&#x2c6;" 
d="M355 556l-105 85l-105 -85l-75 65l118 136h124l118 -136z" />
    <glyph glyph-name="caron" unicode="&#x2c7;" 
d="M189 574l-119 135l75 66l106 -85l104 85l75 -66l-117 -135h-124z" />
    <glyph glyph-name="uni02C9" unicode="&#x2c9;" 
d="M86 587v130h327v-130h-327z" />
    <glyph glyph-name="breve" unicode="&#x2d8;" 
d="M427 703q-18 -69 -58.5 -104.5t-118.5 -35.5t-119 35.5t-58 104.5l96 35q11 -32 32.5 -46t48.5 -14t46.5 13.5t34.5 46.5z" />
    <glyph glyph-name="dotaccent" unicode="&#x2d9;" 
d="M368 698q0 -56 -30.5 -86.5t-87.5 -30.5q-56 0 -86 30.5t-30 86.5q0 55 30 84.5t86 29.5q57 0 87.5 -29.5t30.5 -84.5z" />
    <glyph glyph-name="ring" unicode="&#x2da;" 
d="M383 667q0 -54 -35 -84.5t-88 -30.5q-55 0 -90.5 30t-35.5 81q0 28 10 49.5t27.5 36.5t40.5 23t48 8q51 0 87 -30t36 -83zM260 624q17 0 28 10t11 33q0 22 -11 32t-28 10q-20 0 -31.5 -10t-11.5 -32q0 -23 12 -33t31 -10z" />
    <glyph glyph-name="ogonek" unicode="&#x2db;" 
d="M378 -215q-37 -17 -73 -24t-64 -7q-65 0 -92 28t-27 70q0 31 14.5 58t35 49t43.5 38.5t40 26.5l90 -21q-11 -10 -25 -24t-26 -30t-20.5 -31.5t-8.5 -28.5q0 -11 4.5 -17t17.5 -6q8 0 24 3t33 8z" />
    <glyph glyph-name="tilde" unicode="&#x2dc;" 
d="M417 642q-14 -31 -29 -50.5t-41 -19.5q-23 0 -50.5 6.5t-65.5 17.5q-15 5 -31.5 10t-21.5 5t-7.5 -2.5l-8.5 -8.5l-23 -25l-75 44l30 59q13 26 31 41.5t41 15.5q26 0 85 -17q9 -3 20.5 -6t22 -5.5t19 -4.5t11.5 -2q6 0 12 7l21 26l83 -42z" />
    <glyph glyph-name="hungarumlaut" unicode="&#x2dd;" 
d="M118 552l-75 65l146 186l104 -93zM334 552l-75 65l146 187l104 -94z" />
    <glyph glyph-name="uni0394" unicode="&#x394;" horiz-adv-x="772" 
d="M0 0l266 724h239l267 -724h-772zM372 493h-10l-107 -324h219z" />
    <glyph glyph-name="uni03A9" unicode="&#x3a9;" horiz-adv-x="826" 
d="M435 0v240q21 9 42 23t37.5 36t26.5 52.5t10 71.5q0 46 -9.5 74.5t-26 44.5t-39.5 21.5t-49 5.5q-55 0 -90 -34t-35 -118q0 -54 22 -102t70 -74v-241h-354v188h142l12 -35q2 -8 5 -9.5t11 -1.5h50v37q-93 27 -136 91.5t-43 158.5q0 70 23.5 127t68 97t108.5 62t144 22
q177 0 260 -72.5t83 -224.5q0 -54 -17.5 -96.5t-45.5 -74.5t-64 -54.5t-73 -35.5v-37h49q8 0 11 1.5t5 9.5l11 35h142v-188h-351z" />
    <glyph glyph-name="uni03BC" unicode="&#x3bc;" horiz-adv-x="629" 
d="M388 0l-8 42l-6 1q-20 -23 -49 -36.5t-59 -18.5l16 -164h-220v704h211v-335q0 -31 7.5 -40t22.5 -9q8 0 20 3t23 8v373h211v-398q0 -8 2 -12t12 -6l47 -7v-105h-230z" />
    <glyph glyph-name="pi" unicode="&#x3c0;" horiz-adv-x="676" 
d="M373 0v401h-69v-401h-268v104l41 7q12 2 14 5t2 17v260q0 11 -2.5 14.5t-13.5 5.5l-39 7v108h600v-108l-38 -7q-11 -2 -13.5 -5.5t-2.5 -14.5v-262q0 -12 2.5 -15t13.5 -5l41 -7v-104h-268z" />
    <glyph glyph-name="afii10023" unicode="&#x401;" horiz-adv-x="625" 
d="M289 865q0 -39 -23.5 -62t-62.5 -23q-38 0 -62.5 23t-24.5 62q0 38 24.5 60.5t62.5 22.5q39 0 62.5 -22.5t23.5 -60.5zM504 865q0 -39 -23.5 -62t-62.5 -23t-63 23t-24 62q0 38 24 60.5t63 22.5t62.5 -22.5t23.5 -60.5zM16 0v103l63 7q11 2 13.5 5.5t2.5 14.5v463
q0 11 -2.5 15t-13.5 5l-63 7v104h562v-239l-153 6l-14 75q-3 13 -17 13h-82v-142h202v-151h-202v-142h104q8 0 11 1.5t5 9.5l16 88h152v-243h-584z" />
    <glyph glyph-name="afii10051" unicode="&#x402;" horiz-adv-x="836" 
d="M465 0h-306v104l73 8q11 1 13.5 5t2.5 15v446h-42q-8 0 -11 -1.5t-5 -9.5l-16 -75l-153 -5v237h728v-237l-151 5l-16 75q-2 8 -5 9.5t-11 1.5h-101v-159q20 5 53 9t68 4q49 0 91 -13.5t73 -40.5t48.5 -66.5t17.5 -90.5q0 -34 -9 -75t-33 -76t-65.5 -58.5t-106.5 -23.5
q-26 0 -54 4.5t-56 15.5l19 136q9 -3 20 -4.5t20 -1.5q32 0 48.5 20.5t16.5 52.5q0 37 -24.5 54t-64.5 17q-9 0 -27 -1.5t-35 -4.5v-276z" />
    <glyph glyph-name="afii10052" unicode="&#x403;" horiz-adv-x="627" 
d="M240 767l-43 87l224 116l59 -126zM16 0v103l63 7q11 2 13.5 5.5t2.5 14.5v463q0 11 -2.5 15t-13.5 5l-63 7v104h589v-259l-153 6l-14 95q-3 13 -17 13h-109v-447q0 -12 2.5 -15t13.5 -5l147 -8v-104h-459z" />
    <glyph glyph-name="afii10053" unicode="&#x404;" horiz-adv-x="682" 
d="M639 46q-24 -13 -54.5 -24t-63.5 -18.5t-66.5 -11.5t-63.5 -4q-99 0 -170 25.5t-116 73.5t-66 117.5t-21 158.5q0 80 24.5 148.5t72.5 118.5t120 78.5t167 28.5q30 0 62.5 -4t64 -11.5t60 -18.5t50.5 -25v-232l-153 12l-16 101q-3 15 -17 17q-11 2 -24.5 3t-27.5 1
q-63 0 -105 -34.5t-53 -108.5h221v-151h-220q12 -73 54.5 -108t99.5 -35q15 0 30 1t26 3t15 6t6 17l15 96h149v-220z" />
    <glyph glyph-name="afii10054" unicode="&#x405;" horiz-adv-x="601" 
d="M397 485l-8 78q-2 11 -5 14t-11 5q-17 2 -27.5 2.5t-20.5 0.5q-35 0 -53 -15.5t-18 -38.5q0 -16 9 -27t24.5 -19.5t36 -14.5t43.5 -13q35 -10 72.5 -23.5t68.5 -38t51 -63.5t20 -99q0 -65 -23.5 -111.5t-64 -76t-94.5 -43.5t-115 -14q-33 0 -69.5 4t-70.5 10t-62.5 14
t-45.5 16v226h157l21 -100q2 -8 5 -11t12 -5q7 -1 23 -2.5t30 -1.5q45 0 67 16.5t22 43.5q0 18 -9.5 30t-26 20t-38 14t-45.5 12q-35 9 -71.5 21t-66.5 35.5t-49 62t-19 99.5q0 62 21.5 107.5t59.5 76.5t90 46t113 15q67 0 125 -13.5t100 -31.5v-220z" />
    <glyph glyph-name="afii10055" unicode="&#x406;" horiz-adv-x="417" 
d="M11 0v103l73 8q11 1 13.5 5t2.5 15v461q0 11 -2.5 15t-13.5 5l-73 7v105h399v-105l-77 -8q-11 -2 -13.5 -5t-2.5 -14v-461q0 -12 2.5 -15t13.5 -5l77 -8v-103h-399z" />
    <glyph glyph-name="afii10056" unicode="&#x407;" horiz-adv-x="417" 
d="M11 0v103l73 8q11 1 13.5 5t2.5 15v461q0 11 -2.5 15t-13.5 5l-73 7v105h399v-105l-77 -8q-11 -2 -13.5 -5t-2.5 -14v-461q0 -12 2.5 -15t13.5 -5l77 -8v-103h-399zM188 865q0 -39 -23.5 -62t-62.5 -23q-38 0 -62.5 23t-24.5 62q0 38 24.5 60.5t62.5 22.5
q39 0 62.5 -22.5t23.5 -60.5zM403 865q0 -39 -23.5 -62t-62.5 -23t-63 23t-24 62q0 38 24 60.5t63 22.5t62.5 -22.5t23.5 -60.5z" />
    <glyph glyph-name="afii10057" unicode="&#x408;" horiz-adv-x="533" 
d="M228 593q0 10 -3 13.5t-13 4.5l-95 8v105h411v-105l-67 -8q-11 -2 -13.5 -5t-2.5 -14v-414q0 -97 -50 -143.5t-162 -46.5q-31 0 -63.5 3.5t-61 9.5t-51 14t-35.5 16v217l154 -11l10 -71q2 -11 7 -13t16 -2q9 0 14 4t5 19v419z" />
    <glyph glyph-name="afii10058" unicode="&#x409;" horiz-adv-x="1065" 
d="M90 724h727v-105l-87 -8q-11 -2 -13.5 -5t-2.5 -14v-170h75q69 0 116.5 -13t77 -38.5t42.5 -62.5t13 -85q0 -62 -20 -104.5t-56 -69t-86 -38t-110 -11.5h-348v103l63 7q11 2 13.5 5.5t2.5 14.5v449h-130q1 -29 0.5 -73.5t-2.5 -94t-6 -98t-11 -85.5q-7 -38 -25 -81.5
t-53 -80t-90 -60t-138 -23.5l-32 183q38 4 65 17t45 36t28 57t15 80q5 47 5.5 105.5t0.5 130.5q0 11 -2.5 15t-13.5 5l-63 7v105zM737 143q38 0 58.5 17.5t20.5 56.5q0 23 -8 36.5t-20.5 21t-28.5 10t-32 2.5h-13v-144h23z" />
    <glyph glyph-name="afii10059" unicode="&#x40a;" horiz-adv-x="1104" 
d="M437 0v103l63 7q11 2 13.5 5.5t2.5 14.5v157h-204v-156q0 -12 2.5 -15t13.5 -5l67 -8v-103h-379v103l63 7q11 2 13.5 5.5t2.5 14.5v462q0 11 -2.5 15t-13.5 5l-63 7v105h379v-105l-67 -8q-11 -2 -13.5 -5t-2.5 -14v-170h204v170q0 11 -2.5 15t-13.5 5l-63 7v105h399v-105
l-87 -8q-11 -2 -13.5 -5t-2.5 -14v-170h95q69 0 116.5 -13t77 -38.5t42.5 -62.5t13 -85q0 -62 -20 -104.5t-56 -69t-86 -38t-110 -11.5h-368zM776 143q38 0 58.5 17.5t20.5 56.5q0 23 -8 36.5t-20.5 21t-28.5 10t-32 2.5h-33v-144h43z" />
    <glyph glyph-name="afii10060" unicode="&#x40b;" horiz-adv-x="881" 
d="M469 422q17 3 46 6.5t69 3.5q63 0 103 -16t63 -43t31.5 -63.5t8.5 -78.5v-99q0 -11 2.5 -14t13.5 -5l70 -9v-104h-303v220q0 38 -14.5 50.5t-40.5 12.5q-11 0 -24 -1.5t-25 -4.5v-145q0 -11 2.5 -14.5t13.5 -5.5l49 -8v-104h-371v104l73 8q11 1 13.5 5t2.5 15v446h-42
q-8 0 -11 -1.5t-5 -9.5l-16 -77l-153 -5v239h728v-239l-151 5l-16 77q-2 8 -5 9.5t-11 1.5h-101v-156z" />
    <glyph glyph-name="afii10061" unicode="&#x40c;" horiz-adv-x="801" 
d="M344 767l-43 87l224 116l59 -126zM312 131q0 -12 2.5 -15t13.5 -5l70 -8v-103h-382v103l63 8q11 1 13.5 5t2.5 15v461q0 11 -2.5 15t-13.5 5l-63 7v105h383v-105l-71 -8q-11 -2 -13.5 -5t-2.5 -14v-151h51q31 0 47.5 12.5t27.5 49.5l27 94q23 79 64.5 109.5t108.5 30.5
q23 0 49.5 -3t55.5 -8l-8 -135q-18 3 -32 3q-19 0 -30.5 -9t-19.5 -33l-27 -94q-6 -22 -16.5 -36t-22.5 -23t-24.5 -14t-23.5 -8v-3q29 -8 49 -28t39 -57l79 -155q6 -11 11.5 -16t18.5 -7l59 -8v-103h-281q-24 71 -50 128.5t-53 110.5q-14 28 -30.5 38.5t-41.5 10.5h-27
v-157z" />
    <glyph glyph-name="afii10062" unicode="&#x40e;" horiz-adv-x="736" 
d="M584 925q-18 -68 -61.5 -105.5t-124.5 -37.5t-123.5 38t-59.5 106l123 37q5 -32 18 -53t43 -21q58 0 68 72zM418 621l10 103h288v-103l-42 -11q-12 -3 -18.5 -10.5t-11.5 -20.5l-177 -432q-22 -54 -47 -86t-54 -48t-61.5 -20.5t-70.5 -4.5q-19 0 -42.5 3t-47.5 8.5
t-46 13t-37 16.5l52 150q16 -9 41 -16t50 -7q20 0 35.5 6t24.5 27l-171 404q-4 9 -9.5 12t-14.5 5l-45 11l10 103h349v-103l-70 -9l80 -225h11l79 225z" />
    <glyph glyph-name="afii10145" unicode="&#x40f;" horiz-adv-x="811" 
d="M509 0q-11 0 -13.5 -3.5t-3.5 -9.5l-19 -151l-138 5l-20 146q-1 13 -13 13h-286v105l63 7q11 1 13.5 5t2.5 15v462q0 11 -2.5 14.5t-13.5 5.5l-63 7v103h369v-103l-57 -8q-11 -2 -13.5 -5t-2.5 -15v-448h185v449q0 11 -2.5 14.5t-13.5 5.5l-53 7v103h369v-103l-67 -8
q-11 -2 -13.5 -5t-2.5 -15v-461q0 -11 2.5 -14t13.5 -5l67 -8v-105h-288z" />
    <glyph glyph-name="afii10017" unicode="&#x410;" horiz-adv-x="805" 
d="M422 0v103l80 9l-18 49h-216l-17 -49l78 -9v-103h-331v103l46 11q9 2 15.5 6t9.5 13l217 591h238l212 -593q3 -9 9 -12t15 -5l47 -11v-103h-385zM382 514h-7l-68 -210h140z" />
    <glyph glyph-name="afii10018" unicode="&#x411;" horiz-adv-x="682" 
d="M311 579v-157h95q69 0 116.5 -13t77 -38.5t42.5 -62.5t13 -85q0 -62 -20 -104.5t-56 -69t-86 -38t-110 -11.5h-367v105l63 7q11 1 13.5 5t2.5 15v461q0 11 -2.5 14.5t-13.5 5.5l-73 7v104h588v-245l-153 7l-14 80q-3 13 -17 13h-99zM354 143q38 0 58.5 17.5t20.5 56.5
q0 23 -8 36.5t-20.5 21t-28.5 10t-32 2.5h-33v-144h43z" />
    <glyph glyph-name="afii10019" unicode="&#x412;" horiz-adv-x="674" 
d="M16 0v103l63 7q11 2 13.5 5.5t2.5 14.5v462q0 11 -2.5 15t-13.5 5l-63 7v105h374q64 0 107 -13.5t68.5 -37.5t36 -56.5t10.5 -69.5q0 -36 -10.5 -63.5t-27.5 -48.5t-39 -34.5t-45 -21.5v-3q86 -10 125 -54.5t39 -119.5q0 -55 -21.5 -93.5t-59 -62.5t-88 -35t-109.5 -11
h-360zM335 143q48 0 71.5 18.5t23.5 66.5q0 26 -7 41t-18.5 23t-27 10.5t-32.5 2.5h-34v-162h24zM304 435q24 0 43.5 2.5t33.5 10.5t21.5 22.5t7.5 38.5q0 25 -8 39t-20 20.5t-27 8t-29 1.5h-15v-143h-7z" />
    <glyph glyph-name="afii10020" unicode="&#x413;" horiz-adv-x="627" 
d="M16 0v103l63 7q11 2 13.5 5.5t2.5 14.5v463q0 11 -2.5 15t-13.5 5l-63 7v104h589v-259l-153 6l-14 95q-3 13 -17 13h-109v-447q0 -12 2.5 -15t13.5 -5l147 -8v-104h-459z" />
    <glyph glyph-name="afii10021" unicode="&#x414;" horiz-adv-x="813" 
d="M511 144v435h-128v-123q0 -40 -2 -79t-10 -77.5t-23.5 -77t-42.5 -78.5h206zM80 152q28 32 46.5 64.5t29.5 71t15.5 85.5t4.5 107v112q0 11 -2.5 15t-13.5 5l-63 7v105h704v-105l-67 -8q-11 -2 -13.5 -5t-2.5 -14v-440h78v-308l-151 10l-23 134q-1 12 -13 12h-400
q-11 0 -13 -12l-23 -134l-151 -10v308h58z" />
    <glyph glyph-name="afii10022" unicode="&#x415;" horiz-adv-x="625" 
d="M16 0v103l63 7q11 2 13.5 5.5t2.5 14.5v463q0 11 -2.5 15t-13.5 5l-63 7v104h562v-239l-153 6l-14 75q-3 13 -17 13h-82v-142h202v-151h-202v-142h104q8 0 11 1.5t5 9.5l16 88h152v-243h-584z" />
    <glyph glyph-name="afii10024" unicode="&#x416;" horiz-adv-x="1144" 
d="M753 724v-105l-56 -8q-11 -2 -13.5 -5t-2.5 -14v-151h21q31 0 43.5 13t25.5 49l33 94q27 77 66.5 108.5t106.5 31.5q23 0 49.5 -3.5t55.5 -8.5l-8 -134q-18 3 -32 3q-19 0 -30.5 -9t-19.5 -33l-32 -94q-14 -43 -37.5 -59.5t-44.5 -21.5v-3q29 -8 49 -28t39 -57l77 -151
q6 -11 12 -18t19 -9l60 -8v-103h-281q-24 71 -50 128.5t-53 110.5q-14 28 -24.5 38.5t-27.5 10.5h-17v-157q0 -12 2.5 -15t13.5 -5l56 -8v-103h-362v103l56 8q11 2 13.5 5t2.5 15v157h-13q-20 0 -32.5 -11.5t-26.5 -37.5q-26 -48 -51 -108t-49 -131h-281v103l59 9q13 2 18 8
t11 17l80 152q20 37 39.5 57t48.5 28v3q-26 7 -47.5 24.5t-36.5 59.5l-33 91q-9 24 -20 33t-29 9q-12 0 -30 -3l-8 135q32 5 59 8t50 3q35 0 60.5 -6.5t44.5 -22t33 -41.5t26 -64l32 -100q12 -37 28 -49.5t47 -12.5h21v151q0 11 -2.5 14t-13.5 5l-56 8v105h362z" />
    <glyph glyph-name="afii10025" unicode="&#x417;" horiz-adv-x="634" 
d="M219 158q2 -8 5 -11.5t12 -5.5q7 -2 23 -2.5t30 -0.5q44 0 70 20.5t26 58.5q0 24 -8 37.5t-20 20.5t-26.5 9t-27.5 2h-114v151h57q36 0 60.5 7t39.5 18.5t21.5 27t6.5 32.5q0 39 -21 55t-59 16q-13 0 -22.5 -0.5t-22.5 -3.5q-7 -2 -10 -5t-5 -11l-15 -78l-153 -12v189
q21 11 49 22.5t61.5 21t71 15.5t76.5 6q74 0 124.5 -12.5t82 -36t45.5 -57t14 -76.5q0 -37 -11 -66t-28.5 -50.5t-39.5 -35.5t-44 -22v-4q22 -7 47 -18t46 -30.5t34.5 -49t13.5 -73.5q0 -56 -22.5 -97t-64 -68t-101.5 -40t-135 -13q-28 0 -63 3.5t-68.5 9t-62.5 13t-46 16.5
v206h154z" />
    <glyph glyph-name="afii10026" unicode="&#x418;" horiz-adv-x="843" 
d="M456 0v103l73 7q11 2 13.5 5.5t2.5 14.5v315l-7 -1l-240 -444h-282v103l63 7q11 2 13.5 5.5t2.5 14.5v464q0 11 -2.5 15t-13.5 5l-63 7v103h375v-105l-77 -8q-11 -2 -13.5 -5t-2.5 -14v-282l7 1l224 413h298v-103l-63 -7q-11 -1 -13.5 -5t-2.5 -15v-464q0 -11 2.5 -14.5
t13.5 -5.5l63 -7v-103h-371z" />
    <glyph glyph-name="afii10027" unicode="&#x419;" horiz-adv-x="843" 
d="M503 961q-10 -72 -68 -72q-30 0 -43 21t-18 53l-123 -37q17 -68 59.5 -106t123.5 -38t124.5 37.5t61.5 105.5zM456 0v103l73 7q11 2 13.5 5.5t2.5 14.5v315l-7 -1l-240 -444h-282v103l63 7q11 2 13.5 5.5t2.5 14.5v464q0 11 -2.5 15t-13.5 5l-63 7v103h375v-105l-77 -8
q-11 -2 -13.5 -5t-2.5 -14v-282l7 1l224 413h298v-103l-63 -7q-11 -1 -13.5 -5t-2.5 -15v-464q0 -11 2.5 -14.5t13.5 -5.5l63 -7v-103h-371z" />
    <glyph glyph-name="afii10028" unicode="&#x41a;" horiz-adv-x="801" 
d="M312 131q0 -12 2.5 -15t13.5 -5l70 -8v-103h-382v103l63 8q11 1 13.5 5t2.5 15v461q0 11 -2.5 15t-13.5 5l-63 7v105h383v-105l-71 -8q-11 -2 -13.5 -5t-2.5 -14v-151h51q31 0 47.5 12.5t27.5 49.5l27 94q23 79 64.5 109.5t108.5 30.5q23 0 49.5 -3t55.5 -8l-8 -135
q-18 3 -32 3q-19 0 -30.5 -9t-19.5 -33l-27 -94q-6 -22 -16.5 -36t-22.5 -23t-24.5 -14t-23.5 -8v-3q29 -8 49 -28t39 -57l79 -155q6 -11 11.5 -16t18.5 -7l59 -8v-103h-281q-24 71 -50 128.5t-53 110.5q-14 28 -30.5 38.5t-41.5 10.5h-27v-157z" />
    <glyph glyph-name="afii10029" unicode="&#x41b;" horiz-adv-x="828" 
d="M169 592q0 11 -2.5 15t-13.5 5l-63 7v105h727v-105l-67 -8q-11 -2 -13.5 -5t-2.5 -14v-461q0 -12 2.5 -15t13.5 -5l67 -8v-103h-369v103l53 7q11 2 13.5 5.5t2.5 14.5v449h-150q1 -29 1 -73.5t-1.5 -94t-5.5 -98t-11 -85.5q-7 -38 -25.5 -81.5t-53.5 -80t-90.5 -60
t-138.5 -23.5l-32 183q38 4 65 17t45 36t28 57t15 80q5 47 5.5 105.5t0.5 130.5z" />
    <glyph glyph-name="afii10030" unicode="&#x41c;" horiz-adv-x="982" 
d="M583 0v103l82 7q11 1 13.5 5t2.5 15v260h-7l-90 -263h-222l-97 257h-7v-253q0 -12 2.5 -15.5t13.5 -4.5l85 -8v-103h-343v103l63 7q11 1 13.5 5t2.5 15v463q0 11 -2.5 14.5t-13.5 5.5l-63 7v104h324l151 -426h8l146 426h325v-103l-67 -8q-11 -2 -13.5 -5t-2.5 -14v-464
q0 -10 3 -14t13 -5l67 -8v-103h-387z" />
    <glyph glyph-name="afii10031" unicode="&#x41d;" horiz-adv-x="827" 
d="M437 0v103l63 7q11 2 13.5 5.5t2.5 14.5v164h-204v-163q0 -12 2.5 -15t13.5 -5l67 -8v-103h-379v103l63 7q11 2 13.5 5.5t2.5 14.5v462q0 11 -2.5 15t-13.5 5l-63 7v105h379v-105l-67 -8q-11 -2 -13.5 -5t-2.5 -14v-146h204v146q0 11 -2.5 15t-13.5 5l-63 7v105h379v-105
l-67 -8q-11 -2 -13.5 -5t-2.5 -14v-461q0 -12 2.5 -15t13.5 -5l67 -8v-103h-379z" />
    <glyph glyph-name="afii10032" unicode="&#x41e;" horiz-adv-x="753" 
d="M370 -12q-94 0 -161 27.5t-109.5 76t-62 116t-19.5 147.5q0 81 22.5 151t68 121t114.5 80.5t161 29.5q93 0 159.5 -29t109 -79t62.5 -117t20 -142q0 -88 -22 -158.5t-67.5 -120t-114 -76.5t-161.5 -27zM379 156q29 0 53.5 9.5t42 32.5t27.5 62.5t10 100.5q0 58 -9 97.5
t-25.5 64t-40.5 35.5t-54 11q-31 0 -57 -11t-45 -36t-29.5 -65t-10.5 -97q0 -60 10 -99t28 -62.5t43.5 -33t56.5 -9.5z" />
    <glyph glyph-name="afii10033" unicode="&#x41f;" horiz-adv-x="808" 
d="M428 0v103l53 7q11 2 13.5 5.5t2.5 14.5v449h-185v-448q0 -12 2.5 -15t13.5 -5l57 -8v-103h-369v103l63 7q11 2 13.5 5.5t2.5 14.5v462q0 11 -2.5 15t-13.5 5l-63 7v105h781v-105l-67 -8q-11 -2 -13.5 -5t-2.5 -14v-461q0 -12 2.5 -15t13.5 -5l67 -8v-103h-369z" />
    <glyph glyph-name="afii10034" unicode="&#x420;" horiz-adv-x="640" 
d="M16 0v104l63 7q11 2 13.5 5.5t2.5 14.5v461q0 11 -2.5 15t-13.5 5l-63 7v105h369q69 0 115.5 -17t74.5 -46.5t39.5 -68t11.5 -81.5q0 -66 -19 -113.5t-54.5 -78t-86.5 -45t-114 -14.5h-41v-128q0 -12 2.5 -15.5t13.5 -4.5l143 -8v-104h-454zM315 402q12 0 27.5 2.5t29 12
t23 28.5t9.5 52q0 30 -9 46.5t-21.5 24t-26 9t-23.5 1.5h-13v-176h4z" />
    <glyph glyph-name="afii10035" unicode="&#x421;" horiz-adv-x="680" 
d="M639 46q-24 -13 -54.5 -24t-65 -18.5t-70.5 -11.5t-70 -4q-95 0 -163 25t-112 73t-65 117.5t-21 159.5q0 81 24 149.5t72.5 118.5t121 78t168.5 28q29 0 61 -4t63 -11.5t59.5 -18.5t50.5 -25v-232l-153 12l-15 98q-3 15 -15 19q-9 2 -24.5 3.5t-29.5 1.5
q-73 0 -115.5 -52t-42.5 -165q0 -115 40.5 -168t110.5 -53q14 0 31.5 1.5t28.5 3.5t15 5.5t6 17.5l15 96h149v-220z" />
    <glyph glyph-name="afii10036" unicode="&#x422;" horiz-adv-x="738" 
d="M143 0v104l103 8q11 1 13.5 5t2.5 15v446h-52q-8 0 -11 -1.5t-5 -9.5l-16 -87l-153 -5v249h688v-249l-151 5l-16 87q-2 8 -5 9.5t-11 1.5h-51v-446q0 -11 2.5 -14.5t13.5 -4.5l110 -9v-104h-462z" />
    <glyph glyph-name="afii10037" unicode="&#x423;" horiz-adv-x="736" 
d="M418 621l10 103h288v-103l-42 -11q-12 -3 -18.5 -10.5t-11.5 -20.5l-177 -432q-22 -54 -47 -86t-54 -48t-61.5 -20.5t-70.5 -4.5q-19 0 -42.5 3t-47.5 8.5t-46 13t-37 16.5l52 150q16 -9 41 -16t50 -7q20 0 35.5 6t24.5 27l-171 404q-4 9 -9.5 12t-14.5 5l-45 11l10 103
h349v-103l-70 -9l80 -225h11l79 225z" />
    <glyph glyph-name="afii10038" unicode="&#x424;" horiz-adv-x="911" 
d="M234 360q0 -38 31.5 -54.5t94.5 -17.5v156q-72 -2 -99 -24t-27 -60zM559 131q0 -12 2.5 -15t13.5 -5l77 -8v-103h-389v103l73 8q11 1 13.5 5t2.5 15v11q-55 3 -114.5 9t-108 26.5t-80 61t-31.5 112.5q0 52 16.5 94.5t55.5 73.5t103 49.5t159 21.5v15q0 11 -2.5 15
t-13.5 5l-73 7v105h389v-105l-77 -8q-11 -2 -13.5 -5t-2.5 -14v-15q56 -3 115 -9t107.5 -26.5t80 -61t31.5 -112.5q0 -52 -16.5 -94.5t-55.5 -73.5t-103 -49.5t-159 -21.5v-11zM677 372q0 38 -31.5 54.5t-94.5 17.5v-156q72 2 99 24t27 60z" />
    <glyph glyph-name="afii10039" unicode="&#x425;" horiz-adv-x="847" 
d="M424 0v103l82 9l-107 126l-107 -126l80 -9v-103h-339v102l62 12q12 2 17.5 6.5t12.5 12.5l185 211l-211 249q-8 13 -24 17l-57 11l10 103h396v-103l-81 -9l111 -133l118 133l-81 9l10 103h313v-103l-51 -11q-16 -4 -28 -19l-191 -216l209 -244q13 -15 28 -18l52 -10v-103
h-409z" />
    <glyph glyph-name="afii10040" unicode="&#x426;" horiz-adv-x="799" 
d="M703 152h78v-308l-151 10l-23 134q-1 12 -13 12h-579v105l63 7q11 1 13.5 5t2.5 15v462q0 11 -2.5 14.5t-13.5 5.5l-63 7v103h364v-103l-52 -8q-11 -2 -13.5 -5t-2.5 -15v-448h175v449q0 11 -2.5 14.5t-13.5 5.5l-48 7v103h364v-103l-67 -8q-11 -2 -13.5 -5t-2.5 -15
v-441z" />
    <glyph glyph-name="afii10041" unicode="&#x427;" horiz-adv-x="729" 
d="M427 592q0 11 -3 14t-9 5l-39 8v105h341v-105l-57 -8q-11 -2 -13.5 -5t-2.5 -14v-461q0 -12 2.5 -15t13.5 -5l57 -8v-103h-469v103l163 8q11 1 13.5 5t2.5 15v118q-32 -5 -61 -6.5t-51 -1.5q-81 0 -127 19.5t-69.5 49t-29.5 63.5t-6 62v157q0 11 -2.5 14t-13.5 5l-47 8
v105h327v-105l-35 -8q-6 -2 -9 -5t-3 -14v-137q0 -16 2.5 -28.5t11 -21t24 -13t40.5 -4.5q7 0 19.5 1t29.5 3v200z" />
    <glyph glyph-name="afii10042" unicode="&#x428;" horiz-adv-x="1073" 
d="M689 621l-28 -7q-9 -2 -12.5 -5.5t-3.5 -14.5v-449h116v448q0 12 -3 15t-13 5l-32 8v103h344v-103l-63 -7q-11 -2 -13.5 -5.5t-2.5 -14.5v-462q0 -11 2.5 -15t13.5 -5l63 -7v-105h-1041v105l63 7q11 1 13.5 5t2.5 15v462q0 11 -2.5 14.5t-13.5 5.5l-63 7v103h344v-103
l-32 -8q-10 -2 -13 -5t-3 -15v-448h116v449q0 11 -3.5 14.5t-12.5 5.5l-28 7v103h305v-103z" />
    <glyph glyph-name="afii10043" unicode="&#x429;" horiz-adv-x="1073" 
d="M1056 152v-308l-151 10l-23 134q-1 12 -13 12h-853v105l63 7q11 1 13.5 5t2.5 15v462q0 11 -2.5 14.5t-13.5 5.5l-63 7v103h344v-103l-32 -8q-10 -2 -13 -5t-3 -15v-448h116v449q0 11 -3.5 14.5t-12.5 5.5l-28 7v103h305v-103l-28 -7q-9 -2 -12.5 -5.5t-3.5 -14.5v-449
h116v448q0 12 -3 15t-13 5l-32 8v103h344v-103l-63 -7q-11 -2 -13.5 -5.5t-2.5 -14.5v-442h78z" />
    <glyph glyph-name="afii10044" unicode="&#x42a;" horiz-adv-x="833" 
d="M43 724h553v-104l-93 -8q-11 -1 -13.5 -4.5t-2.5 -15.5v-150h71q69 0 116.5 -15t77 -42t42.5 -65.5t13 -86.5q0 -62 -20 -106t-56 -72.5t-86 -41.5t-110 -13h-343v105l63 7q11 1 13.5 5t2.5 15v446h-53q-8 0 -11 -1.5t-5 -9.5l-16 -97h-143v254zM506 143q38 0 58.5 18.5
t20.5 65.5q0 27 -8 42.5t-20.5 24t-28.5 11t-32 2.5h-9v-164h19z" />
    <glyph glyph-name="afii10045" unicode="&#x42b;" horiz-adv-x="1028" 
d="M311 442h71q69 0 116.5 -15t77 -42t42.5 -65.5t13 -86.5q0 -62 -20 -106t-56 -72.5t-86 -41.5t-110 -13h-343v105l63 7q11 1 13.5 5t2.5 15v461q0 11 -2.5 14.5t-13.5 5.5l-73 7v104h414v-104l-93 -8q-11 -1 -13.5 -4.5t-2.5 -15.5v-150zM330 143q38 0 58.5 18.5
t20.5 65.5q0 27 -8 42.5t-20.5 24t-28.5 11t-32 2.5h-9v-164h19zM627 0v103l73 8q11 1 13.5 5t2.5 15v461q0 11 -2.5 15t-13.5 5l-73 7v105h399v-105l-77 -8q-11 -2 -13.5 -5t-2.5 -14v-461q0 -12 2.5 -15t13.5 -5l77 -8v-103h-399z" />
    <glyph glyph-name="afii10046" unicode="&#x42c;" horiz-adv-x="657" 
d="M311 442h71q69 0 116.5 -15t77 -42t42.5 -65.5t13 -86.5q0 -62 -20 -106t-56 -72.5t-86 -41.5t-110 -13h-343v105l63 7q11 1 13.5 5t2.5 15v461q0 11 -2.5 14.5t-13.5 5.5l-73 7v104h414v-104l-93 -8q-11 -1 -13.5 -4.5t-2.5 -15.5v-150zM330 143q38 0 58.5 18.5
t20.5 65.5q0 27 -8 42.5t-20.5 24t-28.5 11t-32 2.5h-9v-164h19z" />
    <glyph glyph-name="afii10047" unicode="&#x42d;" horiz-adv-x="694" 
d="M55 679q24 14 54.5 24.5t63.5 18t66.5 11.5t63.5 4q99 0 170 -23.5t116 -70t66 -114.5t21 -157q0 -84 -26 -154.5t-76 -121.5t-123.5 -79.5t-168.5 -28.5q-30 0 -62.5 4t-64 11.5t-59.5 18.5t-51 25v220h153l16 -101q2 -9 5.5 -12t11.5 -5q21 -4 52 -4q62 0 109.5 35
t58.5 108h-211v151h210q-12 73 -54.5 108t-99.5 35q-15 0 -30 -1t-26 -3t-15 -5.5t-6 -17.5l-15 -96h-149v220z" />
    <glyph glyph-name="afii10048" unicode="&#x42e;" horiz-adv-x="1058" 
d="M390 446q11 64 36.5 117.5t66.5 92t97.5 60t128.5 21.5q86 0 146.5 -29t99.5 -79t57 -117t18 -142q0 -88 -20.5 -158.5t-61.5 -120t-104 -76.5t-149 -27q-78 0 -135.5 22.5t-96.5 63t-60 97t-27 123.5h-74v-163q0 -12 2.5 -15t13.5 -5l72 -8v-103h-384v103l63 7
q11 2 13.5 5.5t2.5 14.5v462q0 11 -2.5 15t-13.5 5l-63 7v105h384v-105l-72 -8q-11 -2 -13.5 -5t-2.5 -14v-146h78zM714 156q25 0 44.5 9.5t32.5 32.5t19.5 62.5t6.5 100.5q0 58 -5.5 97.5t-17.5 64t-31 35.5t-45 11q-55 0 -83.5 -47t-28.5 -162q0 -60 6.5 -99t20 -62.5
t34 -33t47.5 -9.5z" />
    <glyph glyph-name="afii10049" unicode="&#x42f;" horiz-adv-x="739" 
d="M427 578h-36q-35 0 -58 -18t-23 -62q0 -28 8 -44.5t21 -25.5t29.5 -11.5t34.5 -2.5h24v164zM237 337q-30 7 -57 21t-47.5 35.5t-32.5 52t-12 69.5q0 66 24.5 107t62 63.5t83 30.5t88.5 8h376v-104l-63 -7q-11 -2 -13.5 -5.5t-2.5 -14.5v-461q0 -11 2.5 -15t13.5 -5l63 -7
v-105h-352v105l39 7q11 2 14.5 5.5t3.5 15.5v151h-7q-23 0 -34 -11.5t-24 -40.5q-26 -60 -46.5 -114.5t-40.5 -117.5h-263v103l51 8q14 2 19 6.5t10 15.5l54 114q14 29 33.5 51.5t57.5 33.5v5z" />
    <glyph glyph-name="afii10065" unicode="&#x430;" horiz-adv-x="574" 
d="M345 0l-11 50l-7 2q-21 -22 -57 -43t-98 -21q-48 0 -77.5 14.5t-46 37.5t-22.5 51.5t-6 55.5q0 75 47.5 109t144.5 41l95 7v56q0 9 -0.5 17.5t-4 15.5t-11 11.5t-21.5 4.5q-23 0 -30 -11.5t-7 -44.5l-196 14q0 55 22.5 89t57 52.5t77 24.5t81.5 6q61 0 105.5 -9t74 -30
t43.5 -57t14 -90v-221q0 -12 2.5 -15t13.5 -5l45 -8v-104h-228zM307 209l-23 -2q-25 -2 -37 -12t-12 -33q0 -19 11 -28.5t29 -9.5q14 0 32 6v79z" />
    <glyph glyph-name="afii10066" unicode="&#x431;" horiz-adv-x="579" 
d="M288 -12q-80 0 -132 25.5t-82 69.5t-42 105t-12 131q0 78 15 146.5t48.5 122t88.5 89t134 46.5q32 5 50 6.5t28 4t13.5 6.5t6.5 13l146 6q2 -12 3 -23.5t1 -22.5q0 -125 -131 -141q-73 -9 -122 -16t-81 -21t-50 -39t-30 -69l6 -2q28 42 75.5 68t117.5 26q60 0 102.5 -18
t69.5 -51t40 -79.5t13 -103.5q0 -63 -15.5 -114.5t-48.5 -88t-85.5 -56.5t-126.5 -20zM344 259q0 35 -3.5 57.5t-10 36t-16 18.5t-20.5 5t-21 -4.5t-17 -17.5t-11 -36.5t-4 -60.5q0 -39 3.5 -64t10 -39.5t16 -20t20.5 -5.5t21 5t17 19.5t11 40t4 66.5z" />
    <glyph glyph-name="afii10067" unicode="&#x432;" horiz-adv-x="586" 
d="M289 118q33 0 46.5 12t13.5 38q0 31 -18.5 39t-39.5 8h-24v-97h22zM286 323q21 0 35.5 8.5t14.5 36.5q0 13 -4.5 20.5t-11.5 11.5t-15 5t-15 1h-23v-83h19zM340 528q109 0 154 -35t45 -94q0 -28 -9 -48t-23.5 -34.5t-33 -23.5t-38.5 -15v-4q75 -8 107 -40.5t32 -83.5
q0 -43 -20 -72t-54 -46.5t-79 -24.5t-95 -7h-317v104l41 7q11 2 13.5 5.5t2.5 14.5v266q0 11 -2.5 14.5t-13.5 5.5l-41 7v104h331z" />
    <glyph glyph-name="afii10068" unicode="&#x433;" horiz-adv-x="514" 
d="M494 299l-143 5l-13 82q-2 11 -4.5 15.5t-13.5 4.5h-41v-275q0 -12 2.5 -16.5t13.5 -5.5l93 -5v-104h-377v104l41 7q11 2 13.5 5.5t2.5 14.5v266q0 11 -2.5 14.5t-13.5 5.5l-41 7v104h483v-229z" />
    <glyph glyph-name="afii10069" unicode="&#x434;" horiz-adv-x="671" 
d="M398 132v264h-82v-74q0 -58 -11.5 -104t-31.5 -86h125zM193 0q-11 0 -13.5 -4.5t-4.5 -15.5l-16 -105l-144 -10v281h58q30 37 41.5 89.5t11.5 113.5v48q0 11 -2.5 14.5t-13.5 5.5l-41 7v104h587v-104l-41 -7q-11 -2 -13.5 -5.5t-2.5 -14.5v-251h57v-281l-144 10l-16 105
q-2 11 -4.5 15.5t-13.5 4.5h-285z" />
    <glyph glyph-name="afii10070" unicode="&#x435;" horiz-adv-x="543" 
d="M521 46q-57 -26 -113.5 -42t-116.5 -16q-76 0 -129 21.5t-85.5 59t-47 88.5t-14.5 111q0 69 21 119.5t57.5 84.5t85.5 50.5t104 16.5q53 0 96 -14.5t73.5 -45.5t47 -79.5t16.5 -116.5q0 -8 -0.5 -25t-2.5 -36h-276q3 -43 24 -61t59 -18q17 0 55 6t100 25zM316 325
q1 23 -2 37t-9 21.5t-13.5 10t-15.5 2.5q-17 0 -28.5 -13.5t-13.5 -57.5h82z" />
    <glyph glyph-name="afii10072" unicode="&#x436;" horiz-adv-x="947" 
d="M368 328v56q0 18 -13 23l-41 17l14 104h251v-200h21q24 0 34 14t18 39l19 65q14 48 48 70.5t85 22.5q24 0 55 -5.5t54 -13.5l-17 -125q-11 3 -20 4t-17 1q-28 0 -37 -30l-14 -44q-6 -18 -16.5 -30.5t-28.5 -19.5v-4q26 -7 39 -24t24 -41l36 -76q5 -11 11 -14.5t17 -5.5
l47 -7v-104h-236q-17 52 -31 90t-25 67q-12 30 -23 40t-28 10h-15v-76q0 -12 2.5 -16t13.5 -6l27 -5v-104h-301v104l31 5q11 2 13.5 6.5t2.5 15.5v76h-15q-17 0 -29.5 -12t-24.5 -42q-11 -29 -25 -65t-31 -88h-233v104l47 7q11 2 17 5.5t11 14.5l36 76q11 24 24 41t39 24v4
q-20 8 -30.5 24.5t-16.5 34.5l-12 36q-11 29 -39 29q-8 0 -16 -1t-19 -4l-16 124q23 9 53.5 14.5t54.5 5.5q58 0 88 -21t44 -69l20 -68q8 -26 18 -39.5t34 -13.5h21z" />
    <glyph glyph-name="afii10073" unicode="&#x437;" horiz-adv-x="517" 
d="M259 539q63 0 106 -9.5t69 -27t37.5 -42.5t11.5 -56q0 -28 -9.5 -49.5t-23.5 -36.5t-31 -24.5t-31 -14.5v-4q20 -4 39 -11.5t35 -20.5t25.5 -34t9.5 -54q0 -46 -23 -77.5t-58.5 -51.5t-79 -29t-85.5 -9q-69 0 -132 18.5t-104 49.5l63 125q9 -5 25 -13t37.5 -15.5
t47.5 -13t54 -5.5q32 0 43.5 9t11.5 22q0 11 -4 17t-9.5 8.5t-11.5 3t-10 0.5h-109v132h54q26 0 42 4.5t25 11t12 15t3 15.5q0 17 -10 28t-35 11q-5 0 -12 -0.5t-15 -2.5q-10 -2 -13 -16l-8 -36l-151 -5v141q17 8 41.5 16.5t53.5 15.5t60 11t59 4z" />
    <glyph glyph-name="afii10074" unicode="&#x438;" horiz-adv-x="673" 
d="M10 0v104l41 7q11 2 13.5 5.5t2.5 14.5v266q0 11 -2.5 14.5t-13.5 5.5l-41 7v104h302v-104l-37 -7q-11 -2 -13.5 -5t-2.5 -15v-163h4l166 294h234v-104l-41 -7q-11 -2 -13.5 -5.5t-2.5 -14.5v-266q0 -11 2.5 -14.5t13.5 -5.5l41 -7v-104h-302v104l37 7q11 2 13.5 5
t2.5 15v133h-4l-146 -264h-254z" />
    <glyph glyph-name="afii10075" unicode="&#x439;" horiz-adv-x="673" 
d="M10 0v104l41 7q11 2 13.5 5.5t2.5 14.5v266q0 11 -2.5 14.5t-13.5 5.5l-41 7v104h302v-104l-37 -7q-11 -2 -13.5 -5t-2.5 -15v-163h4l166 294h234v-104l-41 -7q-11 -2 -13.5 -5.5t-2.5 -14.5v-266q0 -11 2.5 -14.5t13.5 -5.5l41 -7v-104h-302v104l37 7q11 2 13.5 5
t2.5 15v133h-4l-146 -264h-254zM351 667q29 0 44.5 17.5t23.5 65.5l115 -29q-14 -77 -59 -117.5t-126 -40.5q-82 0 -127 40t-56 115l120 34q4 -43 18.5 -64t46.5 -21z" />
    <glyph glyph-name="afii10076" unicode="&#x43a;" horiz-adv-x="656" 
d="M410 0q-17 52 -31.5 90t-25.5 67q-12 30 -24 40t-32 10h-19v-76q0 -12 2.5 -15t13.5 -5l37 -7v-104h-321v104l41 7q11 2 13.5 5.5t2.5 14.5v266q0 11 -2.5 14.5t-13.5 5.5l-41 7v104h321v-104l-37 -7q-11 -2 -13.5 -5t-2.5 -15v-69h21q32 0 44.5 17.5t17.5 35.5l17 57
q16 54 50 77.5t85 23.5q24 0 51 -5t58 -14l-17 -125q-11 3 -19.5 4t-16.5 1q-15 0 -24.5 -7.5t-14.5 -25.5l-12 -40q-11 -38 -46 -51v-4q26 -7 39 -24t24 -41l36 -76q5 -11 11 -14.5t17 -5.5l47 -7v-104h-236z" />
    <glyph glyph-name="afii10077" unicode="&#x43b;" horiz-adv-x="676" 
d="M322 396q0 -7 -0.5 -31.5t-2.5 -55t-6 -62.5t-10 -56t-19.5 -60t-42 -69t-76 -56t-121.5 -21l-34 175q64 5 90.5 41t31.5 109q2 34 2.5 54t0.5 33q0 11 -2.5 14.5t-13.5 5.5l-41 7v104h587v-104l-41 -7q-11 -2 -13.5 -5.5t-2.5 -14.5v-266q0 -11 2.5 -14.5t13.5 -5.5
l41 -7v-104h-317v104l33 5q11 2 13.5 6t2.5 16v265h-75z" />
    <glyph glyph-name="afii10078" unicode="&#x43c;" horiz-adv-x="784" 
d="M11 0v104l41 7q11 2 13.5 5.5t2.5 14.5v266q0 11 -2.5 14.5t-13.5 5.5l-41 7v104h296l85 -238h4l88 238h289v-104l-41 -7q-11 -2 -13.5 -5.5t-2.5 -14.5v-266q0 -11 2.5 -14.5t13.5 -5.5l41 -7v-104h-327v104l61 7q11 2 13.5 5.5t2.5 14.5v153h-4l-52 -146h-182l-56 146
h-4v-153q0 -11 2.5 -14.5t13.5 -5.5l61 -7v-104h-291z" />
    <glyph glyph-name="afii10079" unicode="&#x43d;" horiz-adv-x="689" 
d="M411 338v59q0 12 -2.5 15t-13.5 5l-35 7v104h319v-104l-41 -7q-11 -2 -13.5 -5.5t-2.5 -14.5v-266q0 -11 2.5 -14.5t13.5 -5.5l41 -7v-104h-319v104l35 7q11 2 13.5 5t2.5 15v72h-133v-72q0 -12 2.5 -15t13.5 -5l35 -7v-104h-319v104l41 7q11 2 13.5 5.5t2.5 14.5v266
q0 11 -2.5 14.5t-13.5 5.5l-41 7v104h319v-104l-35 -7q-11 -2 -13.5 -5t-2.5 -15v-59h133z" />
    <glyph glyph-name="afii10080" unicode="&#x43e;" horiz-adv-x="594" 
d="M293 -12q-73 0 -126 19t-86.5 55t-49.5 87t-16 115q0 62 17.5 113t53 87t90 55.5t127.5 19.5q75 0 127.5 -20t85.5 -55.5t48 -84.5t15 -108q0 -64 -17 -116.5t-52 -89.5t-89 -57t-128 -20zM298 128q12 0 23.5 6t19.5 21.5t13 42.5t5 69q0 39 -4.5 64.5t-12.5 39.5
t-19 19.5t-23 5.5t-23.5 -5t-20.5 -19t-14.5 -39.5t-5.5 -66.5t4.5 -68t13 -42.5t20 -21.5t24.5 -6z" />
    <glyph glyph-name="afii10081" unicode="&#x43f;" horiz-adv-x="661" 
d="M651 528v-104l-41 -7q-11 -2 -13.5 -5.5t-2.5 -14.5v-266q0 -11 2.5 -14.5t13.5 -5.5l41 -7v-104h-307v104l23 5q11 2 13.5 6t2.5 16v265h-105v-265q0 -12 2.5 -16t13.5 -6l23 -5v-104h-307v104l41 7q11 2 13.5 5.5t2.5 14.5v266q0 11 -2.5 14.5t-13.5 5.5l-41 7v104h641
z" />
    <glyph glyph-name="afii10082" unicode="&#x440;" horiz-adv-x="625" 
d="M2 -212v105l38 6q11 2 15.5 6t4.5 16v459q0 16 -13 21l-50 19l14 108h218l9 -44l7 -2q42 32 84.5 44.5t77.5 12.5q42 0 77.5 -13.5t62 -45t41.5 -82t15 -124.5q0 -79 -16 -133.5t-43.5 -88.5t-64.5 -49.5t-78 -15.5q-35 0 -72 12.5t-64 33.5v-110q0 -12 3 -15.5t14 -4.5
l114 -11v-104h-394zM269 157q14 -5 26.5 -8t26.5 -3q32 0 45 33t13 88q0 52 -16 81.5t-48 29.5q-11 0 -23.5 -3t-23.5 -9v-209z" />
    <glyph glyph-name="afii10083" unicode="&#x441;" horiz-adv-x="534" 
d="M502 45q-41 -25 -94.5 -41t-113.5 -16q-72 0 -124.5 20.5t-87 56.5t-51 84.5t-16.5 105.5q0 69 21 122t59 89t90 54.5t115 18.5q31 0 61 -4.5t57 -11.5t49 -16.5t37 -20.5v-181l-147 5l-12 67q-2 7 -4 11.5t-8 6.5q-13 4 -33 4q-12 0 -23.5 -6t-20.5 -20t-14.5 -37
t-5.5 -58q0 -45 8.5 -72.5t22.5 -42t31.5 -19.5t34.5 -5q38 0 69.5 8.5t52.5 15.5z" />
    <glyph glyph-name="afii10084" unicode="&#x442;" horiz-adv-x="635" 
d="M616 528v-229l-133 5l-13 82q-2 11 -4.5 15.5t-13.5 4.5h-26v-275q0 -11 2.5 -15t13.5 -5l81 -7v-104h-405v104l81 7q11 1 13.5 5t2.5 15v275h-26q-11 0 -13.5 -4.5t-4.5 -15.5l-13 -82l-133 -5v229h591z" />
    <glyph glyph-name="afii10085" unicode="&#x443;" horiz-adv-x="657" 
d="M422 -54q-20 -50 -41 -83t-48 -52.5t-61 -27.5t-79 -8q-41 0 -87.5 12.5t-81.5 32.5l43 134q23 -12 53 -22.5t59 -10.5q30 0 46.5 11t30.5 41l5 11l-201 410q-3 9 -7.5 12t-13.5 5l-41 9l20 108h319v-108l-59 -8l88 -202h8l79 202l-62 8l15 108h253v-108l-32 -6
q-14 -2 -18.5 -7.5t-8.5 -15.5z" />
    <glyph glyph-name="afii10086" unicode="&#x444;" horiz-adv-x="853" 
d="M324 607q0 8 -2 13t-10 8l-52 19l13 108h256v-224q84 -3 143 -22t96 -52.5t53.5 -80t16.5 -105.5q0 -80 -24.5 -132.5t-66.5 -85t-98.5 -47.5t-119.5 -20v-65q0 -12 4.5 -16t15.5 -6l38 -6v-105h-321v105l38 6q11 2 15.5 6t4.5 16v67q-84 3 -143 22t-96 52.5t-53.5 80.5
t-16.5 105q0 80 24.5 132.5t66.5 85t98.5 47.5t119.5 20v74zM236 250q0 -33 5.5 -54.5t17 -33.5t28 -17t37.5 -6v238q-18 0 -34 -5t-28 -18.5t-19 -38t-7 -65.5zM617 269q0 33 -5.5 54.5t-17 33.5t-28 17t-37.5 6v-238q18 0 34 5t28 18.5t19 38.5t7 65z" />
    <glyph glyph-name="afii10087" unicode="&#x445;" horiz-adv-x="631" 
d="M295 0v103l29 9l-41 55l-58 -54l40 -9v-104h-249v103l34 7q9 2 16 5.5t15 11.5l121 116l-135 150q-7 8 -11 11t-13 6l-37 11l10 107h314v-107l-32 -8l46 -53l58 53l-42 8l10 107h238v-107l-44 -10q-9 -3 -13 -7l-12 -12l-113 -108l133 -154q7 -8 13.5 -13t15.5 -7l33 -6
v-104h-326z" />
    <glyph glyph-name="afii10088" unicode="&#x446;" horiz-adv-x="661" 
d="M15 0v104l41 7q11 2 13.5 5.5t2.5 14.5v266q0 11 -2.5 14.5t-13.5 5.5l-41 7v104h302v-104l-18 -4q-11 -2 -13.5 -6.5t-2.5 -16.5v-265h95v265q0 12 -2.5 16.5t-13.5 6.5l-18 4v104h302v-104l-41 -7q-11 -2 -13.5 -5.5t-2.5 -14.5v-251h57v-281l-144 10l-16 105
q-2 11 -4.5 15.5t-13.5 4.5h-453z" />
    <glyph glyph-name="afii10089" unicode="&#x447;" horiz-adv-x="631" 
d="M353 397q0 12 -2 16.5t-11 6.5l-16 4v104h287v-104l-31 -6q-11 -2 -13.5 -6t-2.5 -15v-266q0 -11 2.5 -15t13.5 -6l31 -6v-104h-391v104l117 7q11 1 13.5 4.5t2.5 15.5v41q-20 -6 -49.5 -9.5t-51.5 -3.5q-67 0 -106 15t-59 37.5t-25 49t-5 49.5v87q0 11 -3 15.5t-13 6.5
l-21 5v104h277v-104l-16 -4q-9 -2 -11 -6.5t-2 -16.5v-68q0 -17 7 -29t36 -12q14 0 24 2.5t18 5.5v101z" />
    <glyph glyph-name="afii10090" unicode="&#x448;" horiz-adv-x="897" 
d="M15 0v104l31 5q11 2 13.5 6.5t2.5 15.5v266q0 11 -2.5 15.5t-13.5 6.5l-31 5v104h277v-104l-16 -4q-9 -2 -11 -6.5t-2 -16.5v-265h85v265q0 12 -2 16.5t-11 6.5l-16 4v104h259v-104l-16 -4q-9 -2 -11 -6.5t-2 -16.5v-265h85v265q0 12 -2 16.5t-11 6.5l-16 4v104h277v-104
l-31 -5q-11 -2 -13.5 -6.5t-2.5 -15.5v-266q0 -11 2.5 -15.5t13.5 -6.5l31 -5v-104h-867z" />
    <glyph glyph-name="afii10091" unicode="&#x449;" horiz-adv-x="897" 
d="M882 146v-281l-144 10l-16 105q-2 11 -4.5 15.5t-13.5 4.5h-689v104l31 5q11 2 13.5 6.5t2.5 15.5v266q0 11 -2.5 15.5t-13.5 6.5l-31 5v104h277v-104l-16 -4q-9 -2 -11 -6.5t-2 -16.5v-265h85v265q0 12 -2 16.5t-11 6.5l-16 4v104h259v-104l-16 -4q-9 -2 -11 -6.5
t-2 -16.5v-265h85v265q0 12 -2 16.5t-11 6.5l-16 4v104h277v-104l-31 -5q-11 -2 -13.5 -6.5t-2.5 -15.5v-251h47z" />
    <glyph glyph-name="afii10092" unicode="&#x44a;" horiz-adv-x="706" 
d="M423 227v-95h20q21 0 34 11t13 37q0 29 -15.5 38t-31.5 9h-20zM22 528h484v-104l-67 -7q-11 -2 -13.5 -5t-2.5 -15v-54h65q45 0 82.5 -6.5t64.5 -24t42 -48t15 -77.5q0 -41 -13 -75.5t-40 -59t-69.5 -38.5t-102.5 -14h-312v104l41 7q11 2 13.5 5.5t2.5 14.5v275h-26
q-11 0 -13.5 -4.5t-4.5 -15.5l-13 -81l-133 -6v229z" />
    <glyph glyph-name="afii10093" unicode="&#x44b;" horiz-adv-x="899" 
d="M279 227v-95h20q21 0 34 11t13 37q0 29 -15.5 38t-31.5 9h-20zM279 343h65q45 0 82.5 -6.5t64.5 -24t42 -48t15 -77.5q0 -41 -13 -75.5t-40 -59t-69.5 -38.5t-102.5 -14h-312v104l41 7q11 2 13.5 5.5t2.5 14.5v266q0 11 -2.5 14.5t-13.5 5.5l-51 7v104h361v-104l-67 -7
q-11 -2 -13.5 -5t-2.5 -15v-54zM889 424l-41 -7q-11 -2 -13.5 -5.5t-2.5 -14.5v-266q0 -11 2.5 -14.5t13.5 -5.5l41 -7v-104h-325v104l41 7q11 2 13.5 5.5t2.5 14.5v266q0 11 -2.5 14.5t-13.5 5.5l-41 7v104h325v-104z" />
    <glyph glyph-name="afii10094" unicode="&#x44c;" horiz-adv-x="562" 
d="M279 227v-95h20q21 0 34 11t13 37q0 29 -15.5 38t-31.5 9h-20zM279 343h65q45 0 82.5 -6.5t64.5 -24t42 -48t15 -77.5q0 -41 -13 -75.5t-40 -59t-69.5 -38.5t-102.5 -14h-312v104l41 7q11 2 13.5 5.5t2.5 14.5v266q0 11 -2.5 14.5t-13.5 5.5l-51 7v104h361v-104l-67 -7
q-11 -2 -13.5 -5t-2.5 -15v-54z" />
    <glyph glyph-name="afii10095" unicode="&#x44d;" horiz-adv-x="559" 
d="M329 333q-14 37 -39.5 51.5t-55.5 14.5q-20 0 -33 -4q-10 -3 -12 -18l-7 -56l-147 -6v171q15 11 38.5 20.5t53.5 16.5t64 11.5t68 4.5q141 0 213 -65t72 -189q0 -57 -14 -110.5t-48.5 -95t-92 -66.5t-144.5 -25q-60 0 -121 13.5t-109 44.5l49 133q44 -20 76.5 -30
t70.5 -10q40 0 71 11t45 46h-115v137h117z" />
    <glyph glyph-name="afii10096" unicode="&#x44e;" horiz-adv-x="877" 
d="M345 343q18 89 82 142.5t179 53.5q71 0 120 -20t79 -55.5t43.5 -84.5t13.5 -108q0 -64 -15 -116.5t-47.5 -89.5t-82.5 -57t-121 -20q-120 0 -180 56t-74 154h-64v-67q0 -12 2.5 -15t13.5 -5l42 -7v-104h-326v104l41 7q11 2 13.5 5.5t2.5 14.5v266q0 11 -2.5 14.5
t-13.5 5.5l-41 7v104h326v-104l-42 -7q-11 -2 -13.5 -5t-2.5 -15v-54h67zM601 128q11 0 20 6t16 21.5t11 42.5t4 69q0 39 -3.5 64.5t-10.5 39.5t-15.5 19.5t-19.5 5.5q-10 0 -20 -5t-17.5 -19t-12 -39.5t-4.5 -66.5t4 -68t10.5 -42.5t16 -21.5t21.5 -6z" />
    <glyph glyph-name="afii10097" unicode="&#x44f;" horiz-adv-x="633" 
d="M353 194h-13q-17 0 -26.5 -8.5t-17.5 -28.5q-12 -29 -23.5 -67t-24.5 -90h-236v104l47 7q11 2 17 5.5t11 14.5l19 49q19 50 71 64v4q-18 5 -37.5 14t-35.5 24.5t-26 39t-10 56.5q0 26 9.5 52t33 47t63 34t100.5 13h347v-104l-41 -7q-11 -2 -13.5 -5.5t-2.5 -14.5v-266
q0 -11 2.5 -14.5t13.5 -5.5l41 -7v-104h-311v104l27 5q11 2 13.5 6t2.5 16v63zM353 317v89h-29q-13 0 -29.5 -7.5t-16.5 -33.5q0 -28 14.5 -38t35.5 -10h25z" />
    <glyph glyph-name="afii10071" unicode="&#x451;" horiz-adv-x="543" 
d="M521 46q-57 -26 -113.5 -42t-116.5 -16q-76 0 -129 21.5t-85.5 59t-47 88.5t-14.5 111q0 69 21 119.5t57.5 84.5t85.5 50.5t104 16.5q53 0 96 -14.5t73.5 -45.5t47 -79.5t16.5 -116.5q0 -8 -0.5 -25t-2.5 -36h-276q3 -43 24 -61t59 -18q17 0 55 6t100 25zM316 325
q1 23 -2 37t-9 21.5t-13.5 10t-15.5 2.5q-17 0 -28.5 -13.5t-13.5 -57.5h82zM252 672q0 -38 -23.5 -61.5t-62.5 -23.5q-38 0 -62.5 23.5t-24.5 61.5q0 39 24.5 61.5t62.5 22.5q39 0 62.5 -22.5t23.5 -61.5zM467 672q0 -38 -23.5 -61.5t-62.5 -23.5t-63 23.5t-24 61.5
q0 39 24 61.5t63 22.5t62.5 -22.5t23.5 -61.5z" />
    <glyph glyph-name="afii10099" unicode="&#x452;" horiz-adv-x="618" 
d="M277 130q0 -12 2.5 -15.5t12.5 -5.5l34 -5v-104h-316v104l40 7q11 2 13.5 5.5t2.5 14.5v372h-60v105h60v6q-2 14 -13 18l-51 19l14 104h258v-147h138v-105h-138v-94l6 -2q24 24 58.5 40.5t75.5 16.5q55 0 91.5 -21t58 -58.5t30.5 -89t9 -111.5q0 -110 -18 -187t-53 -126
t-86.5 -71t-119.5 -22q-23 0 -51 4t-54 14l17 151q25 -5 44 -5q23 0 42.5 8t33.5 32.5t22 69.5t8 119q0 64 -13 93t-51 29q-29 0 -47 -10v-153z" />
    <glyph glyph-name="afii10100" unicode="&#x453;" horiz-adv-x="514" 
d="M199 557l-74 64l152 183l103 -95zM494 299l-143 5l-13 82q-2 11 -4.5 15.5t-13.5 4.5h-41v-275q0 -12 2.5 -16.5t13.5 -5.5l93 -5v-104h-377v104l41 7q11 2 13.5 5.5t2.5 14.5v266q0 11 -2.5 14.5t-13.5 5.5l-41 7v104h483v-229z" />
    <glyph glyph-name="afii10101" unicode="&#x454;" horiz-adv-x="571" 
d="M357 333v-137h-125q14 -35 45 -46t71 -11q38 0 70.5 10t76.5 30l49 -123q-48 -32 -109 -50t-121 -18q-87 0 -144.5 20.5t-92 56.5t-48.5 84.5t-14 105.5q0 69 23 122t64.5 89t99.5 54.5t128 18.5q31 0 61 -4.5t57 -11.5t49 -16.5t37 -20.5v-171l-147 8l-7 54
q-2 7 -4 11.5t-8 6.5q-13 4 -33 4q-30 0 -60.5 -14.5t-44.5 -51.5h127z" />
    <glyph glyph-name="afii10102" unicode="&#x455;" horiz-adv-x="515" 
d="M331 375l-5 25q-2 7 -4 9t-7 4q-18 6 -48 6q-20 0 -35.5 -5t-15.5 -22q0 -21 26.5 -29t64.5 -16q31 -6 64.5 -14.5t61.5 -26.5t46 -48.5t18 -80.5q0 -48 -18 -84t-51 -59t-79 -34.5t-102 -11.5q-75 0 -131 12t-83 26v128l147 -9l6 -30q2 -9 5 -12t10 -5q17 -5 55 -5
q56 0 56 35q0 11 -7.5 18t-21 11.5t-31.5 7.5t-38 6q-31 5 -63.5 14t-59.5 27.5t-44.5 51t-17.5 84.5q0 50 20 86.5t53.5 59.5t77.5 34t92 11q32 0 64 -3t60 -7.5t50.5 -10.5t35.5 -11v-140z" />
    <glyph glyph-name="afii10103" unicode="&#x456;" horiz-adv-x="336" 
d="M276 693q0 -56 -30 -86.5t-87 -30.5q-56 0 -86.5 30.5t-30.5 86.5q0 55 30.5 84.5t86.5 29.5q57 0 87 -29.5t30 -84.5zM14 0v104l36 7q11 2 13.5 5.5t2.5 14.5v249q0 17 -13 21l-51 19l14 108h261v-397q0 -12 2.5 -15t13.5 -5l37 -7v-104h-316z" />
    <glyph glyph-name="afii10104" unicode="&#x457;" horiz-adv-x="336" 
d="M127 668q0 -38 -23.5 -61.5t-62.5 -23.5q-38 0 -62.5 23.5t-24.5 61.5q0 39 24.5 61.5t62.5 22.5q39 0 62.5 -22.5t23.5 -61.5zM336 668q0 -38 -23.5 -61.5t-62.5 -23.5t-63 23.5t-24 61.5q0 39 24 61.5t63 22.5t62.5 -22.5t23.5 -61.5zM14 0v104l36 7q11 2 13.5 5.5
t2.5 14.5v249q0 17 -13 21l-51 19l14 108h261v-397q0 -12 2.5 -15t13.5 -5l37 -7v-104h-316z" />
    <glyph glyph-name="afii10105" unicode="&#x458;" horiz-adv-x="333" 
d="M64 380q0 15 -14 21l-48 19l14 108h259v-568q0 -50 -14.5 -85t-41 -57t-64 -31.5t-84.5 -9.5q-38 0 -70.5 7t-58 17t-42.5 20t-23 15l50 108q11 -5 34.5 -13.5t50.5 -8.5q10 0 19.5 1t16.5 8t11.5 21t4.5 40v388zM274 693q0 -56 -30.5 -86.5t-87.5 -30.5
q-55 0 -85.5 30.5t-30.5 86.5q0 55 30.5 84.5t85.5 29.5q57 0 87.5 -29.5t30.5 -84.5z" />
    <glyph glyph-name="afii10106" unicode="&#x459;" horiz-adv-x="887" 
d="M604 219v-87h20q21 0 34 10t13 36q0 15 -4.5 23t-11 12t-15 5t-16.5 1h-20zM336 0v104l41 7q11 2 13.5 5.5t2.5 14.5v265h-72q0 -7 -0.5 -31.5t-2.5 -55t-5.5 -62.5t-9.5 -56t-20 -60t-43 -69t-77.5 -56t-122.5 -21l-34 175q64 5 90.5 41t31.5 109q2 34 2.5 54t0.5 33
q0 11 -2.5 14.5t-13.5 5.5l-41 7v104h587v-104l-41 -7q-11 -2 -13.5 -5.5t-2.5 -14.5v-54h65q45 0 82.5 -6.5t64.5 -24t42 -48t15 -77.5q0 -41 -13 -75.5t-40 -59t-69.5 -38.5t-102.5 -14h-312z" />
    <glyph glyph-name="afii10107" unicode="&#x45a;" horiz-adv-x="875" 
d="M675 424l-67 -7q-11 -2 -13.5 -5t-2.5 -15v-54h65q45 0 82.5 -6.5t64.5 -24t42 -48t15 -77.5q0 -41 -13 -75.5t-40 -59t-69.5 -38.5t-102.5 -14h-293v104l22 4q11 2 13.5 6.5t2.5 16.5v88h-103v-88q0 -12 2.5 -16.5t13.5 -6.5l22 -4v-104h-306v104l41 7q11 2 13.5 5.5
t2.5 14.5v266q0 11 -2.5 14.5t-13.5 5.5l-41 7v104h306v-104l-22 -4q-11 -2 -13.5 -6.5t-2.5 -16.5v-54h103v54q0 12 -2.5 16.5t-13.5 6.5l-22 4v104h332v-104zM592 219v-87h20q21 0 34 10t13 36q0 15 -4.5 23t-11 12t-15 5t-16.5 1h-20z" />
    <glyph glyph-name="afii10108" unicode="&#x45b;" horiz-adv-x="619" 
d="M274 502v-92l6 -2q53 56 136 56q75 0 109.5 -40.5t34.5 -127.5v-165q0 -12 2.5 -15t13.5 -5l43 -7v-104h-270v264q0 21 -4 32t-21 11q-11 0 -23.5 -4t-23.5 -9v-164q0 -12 2.5 -15.5t12.5 -5.5l34 -5v-104h-316v104l40 7q11 2 13.5 5.5t2.5 14.5v371h-60v108h60
q-2 14 -13 18l-51 19l14 108h258v-145h138v-108h-138z" />
    <glyph glyph-name="afii10109" unicode="&#x45c;" horiz-adv-x="656" 
d="M494 709l-103 95l-152 -183l74 -64zM410 0q-17 52 -31.5 90t-25.5 67q-12 30 -24 40t-32 10h-19v-76q0 -12 2.5 -15t13.5 -5l37 -7v-104h-321v104l41 7q11 2 13.5 5.5t2.5 14.5v266q0 11 -2.5 14.5t-13.5 5.5l-41 7v104h321v-104l-37 -7q-11 -2 -13.5 -5t-2.5 -15v-69h21
q32 0 44.5 17.5t17.5 35.5l17 57q16 54 50 77.5t85 23.5q24 0 51 -5t58 -14l-17 -125q-11 3 -19.5 4t-16.5 1q-15 0 -24.5 -7.5t-14.5 -25.5l-12 -40q-11 -38 -46 -51v-4q26 -7 39 -24t24 -41l36 -76q5 -11 11 -14.5t17 -5.5l47 -7v-104h-236z" />
    <glyph glyph-name="afii10110" unicode="&#x45e;" horiz-adv-x="657" 
d="M422 -54q-20 -50 -41 -83t-48 -52.5t-61 -27.5t-79 -8q-41 0 -87.5 12.5t-81.5 32.5l43 134q23 -12 53 -22.5t59 -10.5q30 0 46.5 11t30.5 41l5 11l-201 410q-3 9 -7.5 12t-13.5 5l-41 9l20 108h319v-108l-59 -8l88 -202h8l79 202l-62 8l15 108h253v-108l-32 -6
q-14 -2 -18.5 -7.5t-8.5 -15.5zM360 667q29 0 44.5 17.5t23.5 65.5l115 -29q-14 -77 -59 -117.5t-126 -40.5q-82 0 -127 40t-56 115l120 34q4 -43 18.5 -64t46.5 -21z" />
    <glyph glyph-name="afii10193" unicode="&#x45f;" horiz-adv-x="661" 
d="M431 0q-11 0 -13.5 -4.5t-4.5 -15.5l-13 -125l-146 6l-17 119q-2 11 -4.5 15.5t-13.5 4.5h-209v104l41 7q11 2 13.5 5.5t2.5 14.5v266q0 11 -2.5 14.5t-13.5 5.5l-41 7v104h307v-104l-23 -5q-11 -2 -13.5 -6t-2.5 -16v-265h105v265q0 12 -2.5 16t-13.5 6l-23 5v104h307
v-104l-41 -7q-11 -2 -13.5 -5.5t-2.5 -14.5v-266q0 -11 2.5 -14.5t13.5 -5.5l41 -7v-104h-220z" />
    <glyph glyph-name="afii10050" unicode="&#x490;" horiz-adv-x="624" 
d="M312 579v-447q0 -12 2.5 -15t13.5 -5l147 -8v-104h-459v103l63 7q11 2 13.5 5.5t2.5 14.5v463q0 11 -2.5 15t-13.5 5l-63 7v104h398q14 0 17 13l14 85l153 10v-253h-286z" />
    <glyph glyph-name="afii10098" unicode="&#x491;" horiz-adv-x="503" 
d="M303 528q11 0 13.5 4.5t4.5 15.5l13 72l153 5v-229h-208v-265q0 -12 2.5 -16.5t13.5 -5.5l93 -5v-104h-377v104l41 7q11 2 13.5 5.5t2.5 14.5v266q0 11 -2.5 14.5t-13.5 5.5l-41 7v104h292z" />
    <glyph glyph-name="thinspace" unicode="&#x2009;" horiz-adv-x="125" 
 />
    <glyph glyph-name="endash" unicode="&#x2013;" 
d="M0 207v145h499v-145h-499z" />
    <glyph glyph-name="emdash" unicode="&#x2014;" horiz-adv-x="1000" 
d="M0 207v145h1000v-145h-1000z" />
    <glyph glyph-name="quoteleft" unicode="&#x2018;" horiz-adv-x="251" 
d="M196 522q-31 0 -60.5 2t-51.5 11t-35.5 26t-13.5 47q0 19 6.5 39t16.5 42l44 101l83 -23l-19 -104q-1 -10 6 -12l44 -12z" />
    <glyph glyph-name="quoteright" unicode="&#x2019;" horiz-adv-x="256" 
d="M71 544l19 103q1 10 -7 13l-43 12l20 118q32 0 61 -2.5t51 -11.5t35.5 -26t13.5 -47q0 -18 -6 -38.5t-16 -41.5l-45 -101z" />
    <glyph glyph-name="quotesinglbase" unicode="&#x201a;" horiz-adv-x="273" 
d="M82 -126l18 103q3 10 -5 13l-45 12l20 118q32 0 61 -2.5t51.5 -11.5t36 -26t13.5 -47q0 -18 -6.5 -38.5t-16.5 -41.5l-44 -101z" />
    <glyph glyph-name="quotedblleft" unicode="&#x201c;" horiz-adv-x="454" 
d="M196 522q-31 0 -60.5 2t-51.5 11t-35.5 26t-13.5 47q0 19 6.5 39t16.5 42l44 101l83 -23l-19 -104q-1 -10 6 -12l44 -12zM399 522q-31 0 -60.5 2t-51.5 11t-35.5 26t-13.5 47q0 19 6.5 39t16.5 42l44 101l83 -23l-19 -104q-1 -10 6 -12l44 -12z" />
    <glyph glyph-name="quotedblright" unicode="&#x201d;" horiz-adv-x="459" 
d="M71 544l19 103q1 10 -7 13l-43 12l20 118q32 0 61 -2.5t51 -11.5t35.5 -26t13.5 -47q0 -18 -6 -38.5t-16 -41.5l-45 -101zM274 544l19 103q1 10 -7 13l-43 12l20 118q32 0 61 -2.5t51 -11.5t35.5 -26t13.5 -47q0 -18 -6 -38.5t-16 -41.5l-45 -101z" />
    <glyph glyph-name="quotedblbase" unicode="&#x201e;" horiz-adv-x="476" 
d="M82 -126l18 103q3 10 -5 13l-45 12l20 118q32 0 61 -2.5t51.5 -11.5t36 -26t13.5 -47q0 -18 -6.5 -38.5t-16.5 -41.5l-44 -101zM285 -126l18 103q3 10 -5 13l-45 12l20 118q32 0 61 -2.5t51.5 -11.5t36 -26t13.5 -47q0 -18 -6.5 -38.5t-16.5 -41.5l-44 -101z" />
    <glyph glyph-name="dagger" unicode="&#x2020;" horiz-adv-x="428" 
d="M148 -83v187l-24 216l73 112h34l72 -112l-24 -216v-187h-131zM197 432l-83 -51h-74v134h74l83 -50v-33zM146 561v84h135v-84l-50 -96h-34zM315 381l-84 51v33l84 50h73v-134h-73z" />
    <glyph glyph-name="daggerdbl" unicode="&#x2021;" horiz-adv-x="448" 
d="M241 432l72 -113v-73l-72 -116h-34v-33h34l50 -96v-84h-135v84l51 96l-83 -51h-74v134h74l83 -50l-73 116v73l73 113l-83 -51h-74v134h74l83 -50l-51 96v84h135v-84l-50 -96l84 50h73v-134h-73l-84 51v33h-34v-33h34zM325 46l-84 51v33l84 50h73v-134h-73z" />
    <glyph glyph-name="bullet" unicode="&#x2022;" horiz-adv-x="401" 
d="M366 289q0 -79 -42.5 -118.5t-123.5 -39.5t-123 39.5t-42 118.5t42 118.5t123 39.5t123.5 -39.5t42.5 -118.5z" />
    <glyph glyph-name="ellipsis" unicode="&#x2026;" horiz-adv-x="807" 
d="M245 81q0 -45 -25.5 -69t-79.5 -24q-55 0 -80.5 23t-25.5 70q0 45 25.5 69t80.5 24q53 0 79 -24t26 -69zM508 81q0 -45 -25.5 -69t-79.5 -24q-55 0 -80.5 23t-25.5 70q0 45 25.5 69t80.5 24q53 0 79 -24t26 -69zM771 81q0 -45 -25.5 -69t-79.5 -24q-55 0 -80.5 23
t-25.5 70q0 45 25.5 69t80.5 24q53 0 79 -24t26 -69z" />
    <glyph glyph-name="perthousand" unicode="&#x2030;" horiz-adv-x="1189" 
d="M181 295q-88 0 -124.5 41t-36.5 117q0 87 43.5 127t124.5 40q83 0 122 -40t39 -118q0 -81 -43.5 -124t-124.5 -43zM136 -12l373 632h191l-372 -632h-192zM185 388q11 0 19 13t8 60q0 42 -8 53.5t-19 11.5q-5 0 -10 -2t-9.5 -8.5t-7 -19.5t-2.5 -35q0 -46 9 -59.5
t20 -13.5zM650 -12q-88 0 -124.5 41t-36.5 117q0 87 43.5 127t124.5 40q83 0 122 -40t39 -118q0 -81 -43.5 -124t-124.5 -43zM655 81q5 0 10 2.5t8.5 10.5t6 22t2.5 38q0 42 -8.5 53.5t-19.5 11.5q-4 0 -9 -2t-9.5 -8.5t-7 -19.5t-2.5 -35q0 -46 9 -59.5t20 -13.5zM1001 -12
q-88 0 -124.5 41t-36.5 117q0 87 43.5 127t124.5 40q83 0 122 -40t39 -118q0 -81 -43.5 -124t-124.5 -43zM1006 81q5 0 10 2.5t8.5 10.5t6 22t2.5 38q0 42 -8.5 53.5t-19.5 11.5q-4 0 -9 -2t-9.5 -8.5t-7 -19.5t-2.5 -35q0 -46 9 -59.5t20 -13.5z" />
    <glyph glyph-name="guilsinglleft" unicode="&#x2039;" horiz-adv-x="284" 
d="M97 103l-84 152l89 153h162l-85 -141q-4 -6 -4 -9.5t3 -9.5l79 -145h-160z" />
    <glyph glyph-name="guilsinglright" unicode="&#x203a;" horiz-adv-x="284" 
d="M27 103l79 147q3 6 3 9.5t-4 9.5l-85 139h162l89 -152l-84 -153h-160z" />
    <glyph glyph-name="fraction" unicode="&#x2044;" horiz-adv-x="213" 
d="M-173 -17l357 741h191l-356 -741h-192z" />
    <glyph glyph-name="Euro" unicode="&#x20ac;" horiz-adv-x="604" 
d="M297 247q6 -61 23 -86t51 -25q14 0 24 3q7 2 10 13l18 76l143 5v-192q-15 -10 -40 -20t-56 -17t-64 -11.5t-64 -4.5q-122 0 -188.5 65.5t-82.5 193.5h-71l24 151h47q9 71 35 121t64 82t84.5 46.5t95.5 14.5q31 0 63 -4.5t61 -11.5t53 -16.5t38 -20.5v-185l-144 5l-14 70
q-2 8 -4 11.5t-8 5.5q-9 4 -31 4q-11 0 -22 -5t-20 -18.5t-16 -37t-10 -61.5h115l-24 -151h-90z" />
    <glyph glyph-name="afii61352" unicode="&#x2116;" horiz-adv-x="1145" 
d="M452 0l-211 385v-264q0 -12 2.5 -15t13.5 -5l67 -8v-93h-299v93l63 7q11 2 13.5 5.5t2.5 14.5v396q0 11 -2.5 15t-13.5 5l-63 7v93h278l210 -388v266q0 11 -2.5 15t-13.5 5l-63 7v95h298v-95l-67 -8q-11 -2 -13.5 -5t-2.5 -14v-514h-197zM897 205q-52 0 -89 13.5t-60 37
t-34 56.5t-11 72q0 85 49 134.5t152 49.5q52 0 88 -13t59 -36.5t33.5 -55.5t10.5 -71q0 -85 -47.5 -136t-150.5 -51zM900 296q20 0 33 18.5t13 74.5q0 53 -12.5 70t-31.5 17q-10 0 -18.5 -3.5t-15.5 -13t-11 -27t-4 -44.5q0 -55 13.5 -73.5t33.5 -18.5zM726 174h350v-106
h-350v106z" />
    <glyph glyph-name="trademark" unicode="&#x2122;" horiz-adv-x="878" 
d="M116 348v56l48 5v246h-55l-6 -48h-53v117h324v-117h-53l-5 48h-57v-246l50 -5v-56h-193zM684 348v55l35 5v154l-64 -133h-77l-63 134v-155l39 -5v-55h-151v55l32 5v254l-32 3v59h121l96 -203l99 203h117v-59l-34 -3v-254l36 -5v-55h-154z" />
    <glyph glyph-name="partialdiff" unicode="&#x2202;" horiz-adv-x="590" 
d="M362 373q3 82 -22.5 119t-76.5 37q-37 0 -72.5 -16.5t-61.5 -38.5l-80 122q44 35 110.5 58t143.5 23q76 0 126 -25.5t80 -69t42 -101t12 -121.5q0 -80 -13.5 -148t-46.5 -118t-87.5 -78t-136.5 -28q-55 0 -101.5 13t-80.5 40t-52.5 67.5t-18.5 95.5q0 53 16 93t43.5 66
t66 39t83.5 13q41 0 71 -12.5t50 -32.5zM347 267q-14 8 -30 12t-26 4q-30 0 -41 -18.5t-11 -53.5q0 -10 1 -23t5.5 -24.5t15 -19.5t28.5 -8q32 0 44 32.5t14 98.5z" />
    <glyph glyph-name="product" unicode="&#x220f;" horiz-adv-x="800" 
d="M421 -176v103l63 7q11 2 13.5 5.5t2.5 14.5v618h-204v-617q0 -12 2.5 -15t13.5 -5l67 -8v-103h-379v103l63 7q11 2 13.5 5.5t2.5 14.5v638q0 11 -2.5 15t-13.5 5l-63 7v105h800v-105l-67 -8q-11 -2 -13.5 -5t-2.5 -14v-637q0 -12 2.5 -15t13.5 -5l67 -8v-103h-379z" />
    <glyph glyph-name="summation" unicode="&#x2211;" horiz-adv-x="627" 
d="M-3 -176v110l219 328l-217 360v102h570v-239l-153 6l-14 75q-3 13 -17 13h-124l161 -288l-197 -299h198q8 0 11 1.5t5 9.5l16 88h152v-267h-610z" />
    <glyph glyph-name="minus" unicode="&#x2212;" horiz-adv-x="570" 
d="M87 248v153h397v-153h-397z" />
    <glyph glyph-name="radical" unicode="&#x221a;" horiz-adv-x="617" 
d="M241 0l-109 188q-4 6 -6.5 7.5t-10.5 -0.5l-62 -10l-53 115l197 96l107 -211l148 564l165 -41l-190 -708h-186z" />
    <glyph glyph-name="infinity" unicode="&#x221e;" horiz-adv-x="677" 
d="M337 235q-23 -26 -58.5 -43t-81.5 -17q-33 0 -62 8.5t-50 26.5t-33 46t-12 68q0 36 13 63.5t35 46t51.5 28t61.5 9.5q46 0 79.5 -18t57.5 -42q28 24 62.5 42t82.5 18q33 0 61 -8.5t48.5 -27t32.5 -46.5t12 -67q0 -37 -12.5 -65t-33.5 -47t-49.5 -29t-61.5 -10
q-45 0 -82.5 19.5t-60.5 44.5zM274 324q-20 20 -34 29.5t-35 9.5t-34.5 -10.5t-13.5 -30.5q0 -15 13 -27.5t33 -12.5q34 0 71 42zM413 329q15 -17 30.5 -29.5t38.5 -12.5q21 0 30 11.5t9 27.5q0 21 -10.5 29.5t-27.5 8.5t-37 -12.5t-33 -22.5z" />
    <glyph glyph-name="integral" unicode="&#x222b;" horiz-adv-x="428" 
d="M67 -38q36 -15 59 -15q15 0 20.5 11.5t1.5 55.5l-50 562q-4 49 11.5 78.5t39 45.5t50.5 21.5t45 5.5q43 0 78 -6t76 -20l-31 -125q-18 8 -33 11.5t-26 3.5q-15 0 -21 -12.5t-1 -54.5l50 -562q4 -50 -11.5 -79.5t-39 -45.5t-50.5 -21t-45 -5q-43 0 -78 6t-76 20z" />
    <glyph glyph-name="approxequal" unicode="&#x2248;" horiz-adv-x="570" 
d="M514 507q-4 -28 -11 -54t-19 -46.5t-30 -33t-45 -12.5t-56 5t-57 10.5t-54.5 10.5t-48.5 5q-16 0 -24.5 -6t-18.5 -25l-94 43q22 60 48.5 94.5t74.5 34.5q29 0 56.5 -5t54 -11t52 -11t49.5 -5q11 0 17 7.5t12 23.5zM514 304q-4 -28 -11 -54t-19 -46t-30 -32.5t-45 -12.5
t-56 4.5t-57 10.5t-54.5 10.5t-48.5 4.5q-16 0 -24.5 -6t-18.5 -25l-94 43q23 60 49 94.5t74 34.5q29 0 56.5 -5t54 -11t52 -11t49.5 -5q11 0 17 7.5t13 23.5z" />
    <glyph glyph-name="notequal" unicode="&#x2260;" horiz-adv-x="570" 
d="M293 100l-23 -75h-143l24 75h-66v152h116l19 59h-135v152h185l25 76h137l-24 -76h75v-152h-123l-19 -59h142v-152h-190z" />
    <glyph glyph-name="lessequal" unicode="&#x2264;" horiz-adv-x="570" 
d="M89 276v180l398 129v-154l-233 -60l232 -68v-157zM89 0v152h397v-152h-397z" />
    <glyph glyph-name="greaterequal" unicode="&#x2265;" horiz-adv-x="570" 
d="M84 146v157l232 68l-233 54v160l398 -129v-180zM84 0v152h397v-152h-397z" />
    <glyph glyph-name="lozenge" unicode="&#x25ca;" horiz-adv-x="570" 
d="M212 -17l-154 324l154 324h146l154 -324l-154 -324h-146zM364 307l-79 162l-79 -162l79 -173z" />
    <glyph glyph-name="breve.cyr" 
d="M252 667q29 0 44.5 17.5t23.5 65.5l115 -29q-14 -77 -59 -117.5t-126 -40.5q-82 0 -127 40t-56 115l120 34q4 -43 18.5 -64t46.5 -21z" />
    <glyph glyph-name="hyphen.case" horiz-adv-x="311" 
d="M25 267v165h271v-165h-271z" />
    </font>
</defs>
</svg>
